<svg xmlns="http://www.w3.org/2000/svg" width="112.181" height="108.223" viewBox="0 0 112.181 108.223">
  <g id="svgexport-6_2_" data-name="svgexport-6 (2)" transform="translate(0 -9.031)">
    <g id="Group_11430" data-name="Group 11430" transform="translate(0 9.031)">
      <path id="Path_11965" data-name="Path 11965" d="M313.414,101.255V89.292a1.647,1.647,0,0,0-3.293,0v11.964a5.728,5.728,0,0,0-3.1,8.686l-4.516,5.069a1.646,1.646,0,1,0,2.459,2.19l4.6-5.17a5.729,5.729,0,1,0,3.845-10.777Zm-1.644,7.925a2.437,2.437,0,1,1,2.433-2.437A2.438,2.438,0,0,1,311.77,109.18Z" transform="translate(-235.904 -70.42)" fill="#c89b2c"/>
      <path id="Path_11966" data-name="Path 11966" d="M75.93,9.031A36.318,36.318,0,0,0,41.572,33.737a3.754,3.754,0,0,0-2.281.782l-3.252,2.527q-.818-.381-1.665-.691l-.515-4.089a3.764,3.764,0,0,0-3.727-3.289H24.177a3.764,3.764,0,0,0-3.727,3.289l-.515,4.089c-.563.206-1.119.437-1.664.691l-3.252-2.527a3.761,3.761,0,0,0-4.961.311L5.847,39.046a3.767,3.767,0,0,0-.311,4.961l2.526,3.257q-.382.82-.692,1.669l-4.084.515A3.764,3.764,0,0,0,0,53.177v5.961a3.765,3.765,0,0,0,3.287,3.729l4.084.515q.309.848.692,1.669L5.536,68.309a3.767,3.767,0,0,0,.311,4.961l4.211,4.215a3.761,3.761,0,0,0,4.961.311l3.252-2.527q.818.381,1.664.691l.515,4.089a3.764,3.764,0,0,0,3.727,3.289h3.7c-.012.127-.019.255-.019.384v6.666a4.014,4.014,0,0,0,3.5,3.977l4.684.591q.378,1.052.858,2.069l-2.9,3.736a4.017,4.017,0,0,0,.332,5.291l4.709,4.713a4.011,4.011,0,0,0,5.29.332l3.73-2.9q1.012.478,2.064.857l.59,4.691a4.014,4.014,0,0,0,3.974,3.507H61.36a4.014,4.014,0,0,0,3.974-3.507l.59-4.691q1.05-.378,2.065-.857l3.73,2.9a4.011,4.011,0,0,0,5.29-.332l4.709-4.713a4.017,4.017,0,0,0,.332-5.291l-2.9-3.736c.319-.676.606-1.367.858-2.069l4.684-.591a4.014,4.014,0,0,0,3.5-3.977V83.723a4.016,4.016,0,0,0-2.154-3.552A36.3,36.3,0,0,0,75.93,9.031ZM23.718,79.639l-.644-5.114a1.647,1.647,0,0,0-1.149-1.368A17.671,17.671,0,0,1,18.85,71.88a1.646,1.646,0,0,0-1.782.154L13,75.2a.463.463,0,0,1-.611-.039L8.177,70.942a.468.468,0,0,1-.039-.616L11.3,66.253a1.646,1.646,0,0,0,.154-1.78,17.712,17.712,0,0,1-1.276-3.079,1.646,1.646,0,0,0-1.368-1.15L3.7,59.6a.466.466,0,0,1-.406-.462V53.177a.466.466,0,0,1,.406-.462l5.109-.644a1.646,1.646,0,0,0,1.368-1.15,17.709,17.709,0,0,1,1.276-3.079,1.647,1.647,0,0,0-.154-1.779L8.138,41.989a.467.467,0,0,1,.039-.616l4.211-4.216A.463.463,0,0,1,13,37.119l4.069,3.162a1.647,1.647,0,0,0,1.782.154,17.684,17.684,0,0,1,3.075-1.277,1.646,1.646,0,0,0,1.149-1.368l.644-5.114a.465.465,0,0,1,.46-.407h5.955a.465.465,0,0,1,.46.407l.644,5.114a1.647,1.647,0,0,0,1.149,1.368,17.684,17.684,0,0,1,3.075,1.277,1.646,1.646,0,0,0,1.782-.154l3.226-2.507a36.324,36.324,0,0,0,3.781,25.174,4.008,4.008,0,0,0-5.2.4L34.344,68.06a4.019,4.019,0,0,0-.731,4.663c-.406.16-.816.307-1.228.434a1.647,1.647,0,0,0-1.149,1.368l-.644,5.114a.465.465,0,0,1-.46.407H24.178a.465.465,0,0,1-.46-.407ZM34.375,75.96q.638-.234,1.265-.511l1.27,1.638q-.479,1.015-.858,2.069l-2.113.266ZM84.907,90.389a.716.716,0,0,1-.624.71l-5.712.72a1.647,1.647,0,0,0-1.368,1.15,20.023,20.023,0,0,1-1.441,3.477,1.647,1.647,0,0,0,.154,1.779l3.532,4.555a.718.718,0,0,1-.059.945l-4.709,4.713a.713.713,0,0,1-.94.059l-4.55-3.535a1.646,1.646,0,0,0-1.782-.154,19.973,19.973,0,0,1-3.472,1.442,1.647,1.647,0,0,0-1.149,1.368l-.72,5.718a.715.715,0,0,1-.707.626H54.7a.715.715,0,0,1-.707-.626l-.72-5.718a1.647,1.647,0,0,0-1.149-1.368,19.948,19.948,0,0,1-3.472-1.442,1.661,1.661,0,0,0-1.782.154l-4.55,3.535a.712.712,0,0,1-.94-.059l-4.709-4.713a.718.718,0,0,1-.059-.945l3.532-4.555a1.647,1.647,0,0,0,.154-1.779,20.03,20.03,0,0,1-1.441-3.476,1.646,1.646,0,0,0-1.368-1.15l-5.712-.72a.716.716,0,0,1-.624-.71V83.723a.716.716,0,0,1,.624-.71l5.712-.72a1.646,1.646,0,0,0,1.368-1.15A20.024,20.024,0,0,1,40.3,77.667a1.646,1.646,0,0,0-.154-1.779l-3.532-4.554a.718.718,0,0,1,.059-.945l4.709-4.713a.713.713,0,0,1,.94-.059l4.55,3.535a1.647,1.647,0,0,0,1.782.154,19.951,19.951,0,0,1,3.472-1.442,1.647,1.647,0,0,0,1.149-1.368l.72-5.718a.715.715,0,0,1,.707-.626h6.659a.715.715,0,0,1,.707.626l.72,5.718a1.647,1.647,0,0,0,1.149,1.368A19.959,19.959,0,0,1,67.409,69.3a1.647,1.647,0,0,0,1.782-.154l4.55-3.535a.712.712,0,0,1,.94.059l4.709,4.713a.718.718,0,0,1,.059.945l-3.532,4.554a1.646,1.646,0,0,0-.154,1.779A20.013,20.013,0,0,1,77.2,81.144a1.647,1.647,0,0,0,1.368,1.15l5.712.72a.716.716,0,0,1,.624.71ZM100.033,67.82A32.817,32.817,0,0,1,79.6,78.106q-.213-.514-.451-1.019l2.255-2.909A29.5,29.5,0,0,0,97.2,65.559a1.647,1.647,0,1,0-2.387-2.268,26.227,26.227,0,0,1-11.954,7.171,3.993,3.993,0,0,0-1.143-2.4L77.01,63.347a4.011,4.011,0,0,0-5.29-.332l-3.73,2.9q-1.012-.478-2.065-.857l-.59-4.691a4.014,4.014,0,0,0-3.974-3.507H54.7a3.977,3.977,0,0,0-1.9.485,26.057,26.057,0,1,1,45.726.97,1.647,1.647,0,1,0,2.855,1.642,29.355,29.355,0,1,0-50.658.42l-.589,4.682q-.241.087-.481.18a32.956,32.956,0,1,1,50.377,2.585Z" transform="translate(0 -9.031)" fill="#c89b2c"/>
      <path id="Path_11967" data-name="Path 11967" d="M220.63,308.452a12.423,12.423,0,0,0-9.132,20.832,1.646,1.646,0,1,0,2.424-2.229,9.08,9.08,0,1,1,4.869,2.761,1.647,1.647,0,0,0-.661,3.226,12.421,12.421,0,1,0,2.5-24.589Z" transform="translate(-162.598 -242.848)" fill="#c89b2c"/>
      <path id="Path_11968" data-name="Path 11968" d="M95.034,183.908a11.29,11.29,0,0,0-11.273-11.282,1.647,1.647,0,0,0,0,3.293,7.983,7.983,0,1,1-5.143,1.881,1.646,1.646,0,0,0-2.126-2.515,11.278,11.278,0,1,0,18.541,8.624Z" transform="translate(-56.606 -136.782)" fill="#c89b2c"/>
    </g>
  </g>
</svg>
