<svg xmlns="http://www.w3.org/2000/svg" width="110.477" height="107.663" viewBox="0 0 110.477 107.663">
  <g id="svgexport-6_5_" data-name="svgexport-6 (5)" transform="translate(0 -6.521)">
    <g id="Group_11433" data-name="Group 11433" transform="translate(0 6.521)">
      <path id="Path_11970" data-name="Path 11970" d="M98.771,31.546v-5.31A5.442,5.442,0,0,0,93.335,20.8H92.189a5.442,5.442,0,0,0-5.436,5.436v3.933H83.368V22.31A15.807,15.807,0,0,0,67.579,6.521H64.673a1.618,1.618,0,0,0,0,3.237h2.907A12.566,12.566,0,0,1,80.131,22.31v7.859H73.874v-7.86a6.3,6.3,0,0,0-6.294-6.294H42.9A6.3,6.3,0,0,0,36.6,22.309v7.86H30.346V22.31A12.566,12.566,0,0,1,42.9,9.758H58.2a1.618,1.618,0,0,0,0-3.237H42.9A15.807,15.807,0,0,0,27.109,22.31v7.859H23.723V26.236A5.442,5.442,0,0,0,18.288,20.8H17.142a5.442,5.442,0,0,0-5.436,5.436v5.31A18.789,18.789,0,0,0,0,48.928v46.5a18.78,18.78,0,0,0,18.759,18.759h72.96a18.78,18.78,0,0,0,18.759-18.759v-46.5A18.788,18.788,0,0,0,98.771,31.546Zm-8.78-5.31a2.2,2.2,0,0,1,2.2-2.2h1.146a2.2,2.2,0,0,1,2.2,2.2v4.323a18.767,18.767,0,0,0-3.816-.391H89.991ZM39.84,22.309A3.061,3.061,0,0,1,42.9,19.251H67.579a3.061,3.061,0,0,1,3.058,3.058v7.86H39.84Zm-24.9,3.927a2.2,2.2,0,0,1,2.2-2.2h1.146a2.2,2.2,0,0,1,2.2,2.2v3.933H18.759a18.765,18.765,0,0,0-3.816.391Zm92.3,69.189a15.54,15.54,0,0,1-15.522,15.522H18.759A15.54,15.54,0,0,1,3.237,95.425v-46.5A15.54,15.54,0,0,1,18.759,33.406h72.96A15.54,15.54,0,0,1,107.24,48.928Z" transform="translate(0 -6.521)" fill="#c89b2c"/>
      <path id="Path_11971" data-name="Path 11971" d="M171.365,190H159.719V178.35a5.967,5.967,0,0,0-5.96-5.96H141.166a5.967,5.967,0,0,0-5.96,5.96V190H123.56a5.967,5.967,0,0,0-5.96,5.96v12.591a5.967,5.967,0,0,0,5.96,5.96h3.349a1.618,1.618,0,0,0,0-3.237H123.56a2.726,2.726,0,0,1-2.723-2.723V195.958a2.726,2.726,0,0,1,2.723-2.723h13.264a1.618,1.618,0,0,0,1.618-1.618V178.35a2.726,2.726,0,0,1,2.723-2.723h12.593a2.726,2.726,0,0,1,2.723,2.723v13.266a1.618,1.618,0,0,0,1.618,1.618h13.264a2.726,2.726,0,0,1,2.723,2.723v12.591a2.726,2.726,0,0,1-2.723,2.723H158.1a1.618,1.618,0,0,0-1.618,1.618v13.266a2.726,2.726,0,0,1-2.723,2.723H141.166a2.726,2.726,0,0,1-2.723-2.723V212.891a1.618,1.618,0,0,0-1.618-1.618h-3.442a1.618,1.618,0,0,0,0,3.237h1.823v11.648a5.967,5.967,0,0,0,5.96,5.96h12.593a5.967,5.967,0,0,0,5.96-5.96V214.509h11.646a5.967,5.967,0,0,0,5.96-5.96V195.958A5.967,5.967,0,0,0,171.365,190Z" transform="translate(-92.224 -136.598)" fill="#c89b2c"/>
    </g>
  </g>
</svg>
