<svg xmlns="http://www.w3.org/2000/svg" width="50.12" height="50.12" viewBox="0 0 50.12 50.12">
  <g id="svgexport-6_9_" data-name="svgexport-6 (9)" transform="translate(0)">
    <g id="Group_11437" data-name="Group 11437" transform="translate(0 0)">
      <g id="Group_11436" data-name="Group 11436">
        <path id="Path_11983" data-name="Path 11983" d="M49.385,218.628H46.361V207.174a.734.734,0,1,0-1.468,0v11.454H38.451V193.4h6.442v10.35a.734.734,0,1,0,1.468,0V192.664a.734.734,0,0,0-.734-.734h-7.91a.734.734,0,0,0-.734.734v25.964h-1.7V196.62a.734.734,0,0,0-.734-.734H26.642a.734.734,0,0,0-.734.734v22.009h-1.7V202.553a.734.734,0,0,0-.734-.734H15.567a.734.734,0,0,0-.734.734v16.076h-1.7V207.3a.734.734,0,0,0-.734-.734H4.492a.734.734,0,0,0-.734.734v11.329H.734a.734.734,0,0,0-.734.734v3.165a.734.734,0,0,0,.734.734H8.663a.734.734,0,1,0,0-1.468H1.468v-1.7H48.651v1.7H12.089a.734.734,0,1,0,0,1.468h37.3a.734.734,0,0,0,.734-.734v-3.165a.734.734,0,0,0-.734-.734ZM27.376,197.354h6.442v21.275H27.376ZM16.3,203.287h6.442v15.342H16.3ZM5.226,208.033h6.442v10.6H5.226Z" transform="translate(0 -173.142)" fill="#4a1714"/>
        <path id="Path_11984" data-name="Path 11984" d="M38.114,26.783H49.287A2.322,2.322,0,0,0,51,26.032L60.1,16.1h6.2a2.3,2.3,0,0,0,1.638-.678L75.45,7.908v2.319a.734.734,0,0,0,.734.734h3.164a.734.734,0,0,0,.734-.734V2.316A2.319,2.319,0,0,0,77.766,0h-7.91a.734.734,0,0,0-.734.734V3.9a.734.734,0,0,0,.734.734h2.318l-6.838,6.838H59.077a2.321,2.321,0,0,0-1.707.751l-9.1,9.929H46.244a.734.734,0,0,0,0,1.468h2.347a.734.734,0,0,0,.541-.238l9.32-10.167a.849.849,0,0,1,.625-.275h6.563a.734.734,0,0,0,.519-.215l8.306-8.306a.734.734,0,0,0-.519-1.253H70.59v-1.7h7.176a.849.849,0,0,1,.848.848V9.493h-1.7V6.136a.734.734,0,0,0-1.253-.519l-8.77,8.77a.843.843,0,0,1-.6.248H59.773a.734.734,0,0,0-.541.238L49.913,25.039a.85.85,0,0,1-.626.275H38.848v-1.7h3.969a.734.734,0,1,0,0-1.468h-4.7a.734.734,0,0,0-.734.734v3.164a.734.734,0,0,0,.734.734Z" transform="translate(-33.721 0)" fill="#4a1714"/>
      </g>
    </g>
  </g>
</svg>
