<svg xmlns="http://www.w3.org/2000/svg" width="271.678" height="316.997" viewBox="0 0 271.678 316.997">
  <g id="Group_11425" data-name="Group 11425" transform="translate(-1658.187 -55.73)">
    <g id="Group_5" data-name="Group 5" transform="translate(1711.881 55.73)">
      <path id="Path_1" data-name="Path 1" d="M190.218,200.511c-4.474-6.954-5.748-14.824-6.691-22.829-.519-4.413-.512-8.854-.674-13.287-.4-12.728,2.648-24.655,8.018-36.089,4.434-9.433,10.067-18.193,15.834-26.851,4.589-6.88,9.278-13.7,13.415-20.888a80.488,80.488,0,0,0,8.813-20.618c2.655-10.612,1.489-20.976-2.19-31.15-3.059-8.463-7.479-16.239-12.257-23.826A23.507,23.507,0,0,1,211.914,0c.519.357,1.044.674,1.543,1.078A90.651,90.651,0,0,1,231.825,19.5q18.867,25.692,8.76,55.926c-3.369,10.181-8.7,19.412-14.419,28.421-5.35,8.423-11.125,16.569-16.266,25.126-5.027,8.348-9.433,16.966-11.744,26.534a59.847,59.847,0,0,0-.553,24.628c1.462,8.335,6.63,13.22,14.77,15a24.311,24.311,0,0,0,17.108-2.385c5.316-2.83,10.511-8.7,9.083-17.357-.849-.505-1.408.256-2.055.532-1.718.734-3.275,1.813-5.121,2.291a13.018,13.018,0,0,1-16-15.592,33.914,33.914,0,0,1,1.873-5.559,11.944,11.944,0,0,1,9.016-7.176,8.274,8.274,0,0,1,7.2,1.846,14.952,14.952,0,0,1,4.137,5.155c4.258,8.578,7.021,17.559,6.906,27.242A29.613,29.613,0,0,1,216.1,213.1a31.8,31.8,0,0,1-17.755-4.717c-.229-.33-.788-.182-.95-.633l.047.04a1.091,1.091,0,0,1-.613-.451h0c-.856-.674-2.136-.869-2.52-2.116h0a.923.923,0,0,1-.553-.546h0a.586.586,0,0,1-.526-.526h0a6.839,6.839,0,0,1-3.073-3.719" transform="translate(-113.322 0)" fill="#fff"/>
      <path id="Path_2" data-name="Path 2" d="M272.831,171.538A48.8,48.8,0,0,0,259.1,155.306a12.451,12.451,0,0,0,.175,5.357c.62,2.742,1.388,5.444,1.988,8.193a12.8,12.8,0,0,1-2.19,10.781c-.748-.067-.782-.573-.9-.916-2.641-8.012-5.229-16.03-7.358-24.2a49.6,49.6,0,0,1-1.193-12.674c0-1.7.081-3.409.175-5.114.148-2.621,1.348-3.484,3.874-2.843a10.188,10.188,0,0,1,3.228,1.516,51.02,51.02,0,0,1,14.15,14.911,98.345,98.345,0,0,1,14.77,35.665c3.147,16.589,2.924,33.016-2.837,49.188-1.125,3.14-2.756,6.064-4.09,9.076a5.14,5.14,0,0,1-1.031,1.61h0a4.84,4.84,0,0,1-1.065,1.536h0a5.311,5.311,0,0,1-1.6,2.069c-5.795,6.266-13.159,9.885-21.131,12.438a95.064,95.064,0,0,1-30.389,4.932,10.5,10.5,0,0,1-5.687-1.24c.323-1.031,1.267-.923,1.893-1.119,3.005-.943,6.024-1.873,9.083-2.621,8.47-2.021,16.084-6.064,23.583-10.282,2.7-1.5,5.155-3.329,7.735-4.979a42.745,42.745,0,0,0,14.487-16.212,80.459,80.459,0,0,0,6.657-16.569,33.632,33.632,0,0,0,1.112-11.906c-.451-5.62-.323-5.229-3.18-16.5a72.035,72.035,0,0,0-2.918-7.412c-1.685-3.511-3.409-5.734-3.645-6.347" transform="translate(-124.795 -43.609)" fill="#fff"/>
      <path id="Path_3" data-name="Path 3" d="M197.342,97.453l-6.6,10.235a87.32,87.32,0,0,1-5.316-8.126,118.889,118.889,0,0,1-11.771-24.311c-5.128-15.383-4.717-30.449,2.466-45.145a5.41,5.41,0,0,0,.249-.721c.2-.35.1-.842.519-1.085h0a11.658,11.658,0,0,1,.937-1.61h0c.337-.256.229-.741.539-1A103.31,103.31,0,0,1,192.74,7.87a7.493,7.493,0,0,1,3.025-2.661h0a2.9,2.9,0,0,1,.539-.5h0a1.306,1.306,0,0,1,.559-.505h0a.916.916,0,0,1,.627-.519A33.4,33.4,0,0,0,201.534.641c.606-.539.93-.424.937.4-5.188,7.917-10.107,15.989-13.678,24.783-3.281,7.924-5.249,16.05-4.824,24.648.384,8.234,2.9,15.841,6.482,23.179a124.689,124.689,0,0,0,9.265,15.882c1.206,1.765,1.395,3.14-.081,4.717a16.254,16.254,0,0,0-1.226,1.624c-.377.2-.27.721-.606.95h0a3.115,3.115,0,0,0-.418.62" transform="translate(-109.207 -0.102)" fill="#fff"/>
      <path id="Path_4" data-name="Path 4" d="M129.6,259.464a60.247,60.247,0,0,0,10.188-11.7c.431-.216.35-.674.559-1.038h0c.4-.216.3-.721.559-1.011h0c.357-.283.263-.761.478-1.105a35.415,35.415,0,0,0,1.671-18.866,16.975,16.975,0,0,0-.566-2.217c-2.7-8.335-11.717-10.714-18.152-4.75a17.474,17.474,0,0,0-4.366,6.226,5.667,5.667,0,0,0,0,4.461,70,70,0,0,0,4.043,7.675c3.369,6.125,3.935,12.4,1.1,18.866-.606.283-.8-.249-1.1-.566a140.945,140.945,0,0,0-7.641-14.365c-2.843-4.542-3.207-9.676-2.412-14.824a37.127,37.127,0,0,1,5.559-14.15c4.4-6.994,13.476-9.952,20.733-6.785a1.1,1.1,0,0,1,.64.512h0a3.632,3.632,0,0,1,1.583,1.5h0c1.166.519,1.442,1.7,2.021,2.7,5.188,10.491,5.04,21.562,3.369,32.74A45.232,45.232,0,0,1,144,255.151a36.386,36.386,0,0,1-13.092,15.329,65.3,65.3,0,0,1-28.1,10.862,21.433,21.433,0,0,1-8.126-.31,4.465,4.465,0,0,1-3.093-1.7c6.347-2.325,12.573-4.494,18.577-7.2,6.1-2.742,11.522-6.583,16.845-10.559a1.347,1.347,0,0,0,.6-.472h0a9.641,9.641,0,0,0,2.021-1.651" transform="translate(-83.564 -66.56)" fill="#fff"/>
      <path id="Path_5" data-name="Path 5" d="M133.554,141.715c.35-3.369.337-6.819,1.051-10.168.674-3.153,1.866-6.017,4.508-8.086a7.81,7.81,0,0,1,5.451-1.786,4.919,4.919,0,0,1,4.851,4.393,4.319,4.319,0,0,1,.061,1.017,66.625,66.625,0,0,1-2.089,10.518c-3.3-2.85-4.892-2.7-7.412.674A12.341,12.341,0,0,0,138,149.208a18.193,18.193,0,0,0,5.828,9.433,6.324,6.324,0,0,1,1.813,1.759,7.641,7.641,0,0,1-3.955,0c-4.959-1.132-8.16-4.447-10.5-8.679-3.1-5.586-4.09-11.677-3.915-18.011.189-6.785,1.812-13.308,3.537-19.817a19.98,19.98,0,0,0,.8-6.307,8.827,8.827,0,0,0-1.247-4.117c-1.449-2.385-3.591-3-6.118-1.779a7.924,7.924,0,0,0-3.261,2.837c.283.674,1,.512,1.482.714a5.424,5.424,0,0,1,3.416,5.93,5.667,5.667,0,0,1-5.054,4.979,5.232,5.232,0,0,1-5.667-3.794,7.486,7.486,0,0,1-.424-3.268c.6-5.673,6.361-10.673,12.054-10.424a7.715,7.715,0,0,1,7.075,4.649c1.725,3.6,1.4,7.27.431,10.983-1.294,4.946-2.621,9.885-2.911,15.019a36.151,36.151,0,0,0,1.233,12.4c.317.357.633,1.273.937,0" transform="translate(-91.103 -32.181)" fill="#fff"/>
      <path id="Path_6" data-name="Path 6" d="M101.183,185.922a27.041,27.041,0,0,1-.438,5.849,6.623,6.623,0,0,1-3.888,5.323,68.165,68.165,0,0,1-7.634,2.9c-1.934.674-3.874,1.3-5.795,2.021-1.078.4-1.644,0-1.806-1.044a23.091,23.091,0,0,1,.809-11.374,5.724,5.724,0,0,1,3.288-3.059,30.144,30.144,0,0,1,5.835-1.853,22.614,22.614,0,0,0,7.971-3.315c1.044-.741,1.556-.519,1.664.714s0,2.554,0,3.834" transform="translate(-80.193 -59.025)" fill="#fff"/>
      <path id="Path_7" data-name="Path 7" d="M253.361,186.555a6.325,6.325,0,0,1-.916,2.271c-1.927,3.221-4.252,6.179-6.448,9.218-.937,1.3-1.691,1.435-3.106.674-3.12-1.61-5.781-3.915-8.645-5.916a1.55,1.55,0,0,1-.391-2.075,13.222,13.222,0,0,1,1.071-2.021c2.156-3.073,4.366-6.1,6.522-9.177a1.864,1.864,0,0,1,2.823-.674c3.046,1.739,5.593,4.191,8.6,5.99.606.364.552,1,.492,1.7" transform="translate(-129.891 -58.215)" fill="#fff"/>
      <path id="Path_8" data-name="Path 8" d="M284.284,353.021a43.042,43.042,0,0,0,5.552-5.242,20.753,20.753,0,0,0,1.684-2.244c.937-1.55.741-2.021-1.038-2.473-1.314-.323-2.7-.431-4-.8-2.7-.754-3.369-1.886-3.329-4.629a27,27,0,0,1,2.8-11.044,10.559,10.559,0,0,1,4.818-5.107c1.462-.721,2.331-.162,2.264,1.5a22.226,22.226,0,0,1-1.071,4.979c-.263.923-1.22,1.125-1.927,1.557-.936.579-1.941,1.058-2.385,2.19s-.189,1.853.91,2.244a14.622,14.622,0,0,0,3.5.674c3.888.371,4.757,1.294,4.44,5.2a20.108,20.108,0,0,1-2.513,8.5,11.3,11.3,0,0,1-8.018,5.343c-.674.081-1.583.755-1.691-.674" transform="translate(-146.052 -104.765)" fill="#fff"/>
      <path id="Path_9" data-name="Path 9" d="M147.021,286.29A2.116,2.116,0,0,1,145,287.941a3.537,3.537,0,0,1,2.021-1.651" transform="translate(-100.986 -93.386)" fill="#fff"/>
      <path id="Path_10" data-name="Path 10" d="M139.7,280.41l1.1.566c0,.323-.094.735-.472.613a1.065,1.065,0,0,1-.627-1.179" transform="translate(-99.251 -91.468)" fill="#fff"/>
      <path id="Path_11" data-name="Path 11" d="M163.729,267.39c.074.485,0,.876-.559,1.038a1.146,1.146,0,0,1,.559-1.038" transform="translate(-106.912 -87.221)" fill="#fff"/>
      <path id="Path_12" data-name="Path 12" d="M164.488,265.92a.808.808,0,0,1-.559,1.011,1.085,1.085,0,0,1,.559-1.011" transform="translate(-107.16 -86.742)" fill="#fff"/>
      <path id="Path_13" data-name="Path 13" d="M165.229,264.3a.9.9,0,0,1-.478,1.1,1.065,1.065,0,0,1,.478-1.1" transform="translate(-107.422 -86.213)" fill="#fff"/>
      <path id="Path_14" data-name="Path 14" d="M211.116,143.07a.862.862,0,0,1,.606-.95.957.957,0,0,1-.606.95" transform="translate(-122.549 -46.359)" fill="#fff"/>
      <path id="Path_15" data-name="Path 15" d="M210.48,144.18a.633.633,0,0,1,.418-.62.633.633,0,0,1-.418.62" transform="translate(-122.345 -46.829)" fill="#fff"/>
      <path id="Path_16" data-name="Path 16" d="M144.706,288.73a.633.633,0,0,1-.606.472.674.674,0,0,1,.606-.472" transform="translate(-100.692 -94.182)" fill="#fff"/>
      <path id="Path_17" data-name="Path 17" d="M103.135,244.632a5.97,5.97,0,0,0-5.276-3.82,10.734,10.734,0,0,0-10.249,4.461,37.921,37.921,0,0,0-7.769,19.7,25.116,25.116,0,0,0,1.509,12.31c1.57,3.672,4.2,5.081,8.167,4.629a9.258,9.258,0,0,0,4.461-1.779,20.088,20.088,0,0,0,7.688-9.952,63.244,63.244,0,0,0,2.971-16.468c-.088-3.49-.317-6.374-1.5-9.083m-6.165,16.656c0,.229-.148.815-.2,1.408-.249,3.261-2.217,4.858-6.165,5.188-2.554.216-4.238-1.348-4.366-3.949a9.191,9.191,0,0,1,4.178-8.3,3.818,3.818,0,0,1,5.8,1.577,7.891,7.891,0,0,1,.748,4.077" transform="translate(-79.678 -78.519)" fill="#fff"/>
    </g>
    <g id="Group_6" data-name="Group 6" transform="translate(1658.218 322.352)">
      <g id="Group_1" data-name="Group 1" transform="translate(153.529)">
        <path id="Path_18" data-name="Path 18" d="M282.978,405.839c0,2.634,0,5.276.054,7.917,0,.964-.317,1.348-1.348,1.348q-7.8-.04-15.592,0c-.889,0-1.193-.364-1.193-1.213V400.853c0-.862.31-1.247,1.193-1.186.674.047,1.347,0,2.446,0a3.14,3.14,0,0,0-1.058,2.486c0,3.49.04,6.987,0,10.478,0,1.085.317,1.617,1.449,1.462,1.712-.236,3.524.553,5.148-.532,1.179-.317,2.4.674,3.571-.088,1.543-.182,2.021-1.125,2.021-2.581.061-1.7-.438-3.5.606-5.094,1.395.061,1.179,1.206,1.267,2.021.155,1.462.054,2.931.061,4.656.175-1.678,0-3.113.142-4.521.1-.829-.162-1.954,1.179-2.136" transform="translate(-239.963 -396.989)" fill="#fff"/>
        <path id="Path_20" data-name="Path 20" d="M280.791,416.388c-1.28,1.085-2.25.182-3.254-.5-3.261-2.756-2.628-6.859,1.3-8.416,1.853-.735,4.912-.916,8.557-.485l-.977,1.166c-.775.674-.472,1.57-.492,2.378-.047,1.779,0,3.558-.047,5.33a.753.753,0,0,1-.741.849c-.492-.007-.721-.411-.728-.869,0-1.772,0-3.551-.047-5.33,0-.8.3-1.718-.546-2.345a2.572,2.572,0,0,1-1.348.6c-3.847.782-4.77,3.43-2.291,6.549a2.38,2.38,0,0,1,.633,1.072" transform="translate(-243.401 -399.305)" fill="#fff"/>
        <path id="Path_21" data-name="Path 21" d="M314.877,415.995c-3.227-3.079-2.439-7.034,1.739-8.443,2.547-.855,5.175-.4,7.836-.485-1.091,3.153-.344,6.219-.62,9.211,0,1.348-1.011.9-1.631.836-.964-.094-1.051-.984-1.159-1.738-.276-1.934.27-3.922-.364-5.822-2.109-.97-3.827-.243-4.373,1.887a8.413,8.413,0,0,0-.115,2.25,5.843,5.843,0,0,0,.175.97c.087.209.161.418.229.627a2.8,2.8,0,0,1,.155.674,1.5,1.5,0,0,1-.067.337.748.748,0,0,1-1.166.175h0a1,1,0,0,0-.674-.465" transform="translate(-255.616 -399.39)" fill="#fff"/>
        <path id="Path_24" data-name="Path 24" d="M299.991,399.694a3.067,3.067,0,0,0-1.247,3.079c0,3.645-.034,7.3,0,10.942,0,1.159-.492,1.449-1.536,1.408-.755-.034-1.058-.337-1.058-1.065V400.826c0-.882.384-1.193,1.233-1.139.674.04,1.348,0,2.594,0" transform="translate(-250.156 -396.996)" fill="#fff"/>
        <path id="Path_28" data-name="Path 28" d="M351.878,416.2h-2.547c1.233-2.122.8-4.38.559-6.624-.728-1.826-2.143-2.426-4.043-2.385-3.012.06-6.064,0-9.487,0a16.3,16.3,0,0,1,3.1-3.309c.263-.108.5-.243.546-.559h0c.573-.054.836.169.674.768s-1.051.842-.95,1.873c2.5,0,5.006-.054,7.506,0,2.958.074,4.5,1.442,5.209,4.454-.061,1.934.95,3.976-.593,5.754" transform="translate(-263.272 -398.183)" fill="#fff"/>
        <path id="Path_29" data-name="Path 29" d="M365.6,417.519c-.761,3.167-1.516,3.955-4.589,4.528,1.785-1.664,2.021-3.618,1.961-5.687-.061-2.466,0-4.932,0-7.412,0-2.021,0-2.021,2.149-2.021.33,0,.674-.068.964.216-1.038,3.019-.317,6.125-.492,9.184a.963.963,0,0,1,0,1.179" transform="translate(-271.313 -399.357)" fill="#fff"/>
        <path id="Path_31" data-name="Path 31" d="M321.732,416.16c1.3-2.116-.384-5.821.674-7.27.775.4.593,1.132.6,1.772,0,1.765-.034,3.531,0,5.289s.377,1.846,2.109.937c3.288.411,6.6.115,9.892.182,2.372.047,4.75-.054,7.122.034,1.28.047,1.624-.485,1.543-1.644-.094-1.348-.108-2.7-.155-4.043.64,2.277,1.3,4.555-.559,6.624l-22.128.121a14.421,14.421,0,0,1-1.53-.04,3.591,3.591,0,0,1-2.5-1.044,1.348,1.348,0,0,0,1.139-.606c.391-.182,1.2.377,2.507.148" transform="translate(-256.892 -400)" fill="#fff"/>
        <path id="Path_34" data-name="Path 34" d="M249.057,409.086a1.826,1.826,0,0,1,1.28-2.17,5.811,5.811,0,0,1,7.189,2.567,5.273,5.273,0,0,1-2.7,7.338c-.627.1-1.415.674-1.631-.512a5.66,5.66,0,0,0,1.873-6.529c-.91-2.163-3.288-2.459-5.451-.674a.391.391,0,0,1-.593,0" transform="translate(-234.779 -399.226)" fill="#fff"/>
        <path id="Path_36" data-name="Path 36" d="M393.6,416.388a2.653,2.653,0,0,0,1.226-2.614v-4.845c0-2.055,0-2.055,2.163-2.069h1.395c-1.226,1.691-.775,3.47-.8,5.175a5.343,5.343,0,0,1-2.021,4.716,2.688,2.688,0,0,1-.707.249c-.539.068-1.226.465-1.24-.586" transform="translate(-281.944 -399.338)" fill="#fff"/>
        <path id="Path_38" data-name="Path 38" d="M387.421,417.133c-1.024-.6-1.913-.9-3.052.034a2.4,2.4,0,0,1-3.039-.061.674.674,0,0,1,.586-.539c2.257-.162,2.554-.4,2.628-2.426.061-1.523,0-3.045,0-4.561,0-2.156,0-2.156,2.278-2.17h1.294c-1.348,1.348-.862,2.931-.93,4.4-.04.842,0,1.691,0,2.534a2.446,2.446,0,0,0,1.348,2.264c0,.984-.606.674-1.132.526" transform="translate(-277.941 -399.517)" fill="#fff"/>
        <path id="Path_40" data-name="Path 40" d="M379.476,416.779l-.586.539c-.991-.377-1.974-.91-2.972,0-.775.2-1.644.8-2.069-.478a3.874,3.874,0,0,0,2.021-3.814v-2.81c0-2.163,0-2.163,2.264-2.156.256,0,.505.047.761.068s.256.2.209.324-.108.175-.168.175c-.674,2.776-1.172,5.546.492,8.18" transform="translate(-275.501 -399.729)" fill="#fff"/>
        <path id="Path_43" data-name="Path 43" d="M242.624,407.648l-.714.088c-.741,2.453-.2,4.959-.33,7.412-.121,2.217-.182,2.284-2.54,1.557-.829-1.583-.411-3.3-.505-4.966a5.816,5.816,0,0,0-.431-2.7c-.344-.539-.964-.674-1.449-1s-.923-.613-.142-1.078h5.3c.35,0,1.159-.283.809.674" transform="translate(-230.563 -399.358)" fill="#fff"/>
        <path id="Path_44" data-name="Path 44" d="M230.934,416.676a.283.283,0,0,1-.371-.189,1.347,1.347,0,0,1-.465-.391h0a4.8,4.8,0,0,1-.5-.485h0a1.719,1.719,0,0,1-.411-.472.216.216,0,0,1-.182-.3,1.218,1.218,0,0,0-.384-.741.263.263,0,0,1-.1-.384,3.369,3.369,0,0,1-.2-1.6v-.62a4.487,4.487,0,0,1,.3-1.145,2.678,2.678,0,0,1,.276-.492,4.192,4.192,0,0,1,.357-.418c.061-.061.128-.121.189-.189s.249-.256.377-.384l.189-.189a2.906,2.906,0,0,1,.418-.344l.472-.269c.256-.115.519-.209.775-.31l.553-.135a1.03,1.03,0,0,1,1.031.344.674.674,0,0,1,0,.539,2.7,2.7,0,0,1-.64.505l-.418.3-.371.344a2.375,2.375,0,0,0-.175.189,3.551,3.551,0,0,0-.3.4,2.442,2.442,0,0,0-.115.229,5.046,5.046,0,0,0-.162.768,5.257,5.257,0,0,1-.148.8,2.243,2.243,0,0,0,0,1.058,6.509,6.509,0,0,1,.162.8,7.412,7.412,0,0,0,.175.768c.074.162.135.317.209.472a2.385,2.385,0,0,0,.519.586,4.288,4.288,0,0,1,.438.344,1.813,1.813,0,0,1,.344.465,1.075,1.075,0,0,0,.074.29.674.674,0,0,1-.276.506,1.35,1.35,0,0,1-.593-.108h-.215l-.169-.148a1.557,1.557,0,0,0-.674-.384" transform="translate(-228.023 -399.579)" fill="#fff"/>
        <path id="Path_45" data-name="Path 45" d="M233.76,417.358l.674-.128a2.02,2.02,0,0,1,.862-.849,3.545,3.545,0,0,1,3.174.269c1.671.815,2.021.721,2.075-.748.081-1.839,0-3.679.04-5.518,0-.788-.3-1.7.593-2.284-.04,2.7-.135,5.39-.108,8.133,0,1.159-.29,1.792-1.563,1.644-1.9-.222-3.888.492-5.721-.519" transform="translate(-229.805 -399.742)" fill="#fff"/>
        <path id="Path_47" data-name="Path 47" d="M342.484,403.177l-.674-.768a6.8,6.8,0,0,1,.8-.916c2.021-1.637,2.837-1.482,4.784,1.348a3.5,3.5,0,0,0-4.892.384" transform="translate(-265.05 -397.244)" fill="#fff"/>
        <path id="Path_53" data-name="Path 53" d="M283.48,402.884a1.3,1.3,0,0,1-1.428-1.159,1.192,1.192,0,0,1,1.253-1.489,1.118,1.118,0,0,1,1.253,1.233,1.287,1.287,0,0,1-1.078,1.415" transform="translate(-245.545 -397.174)" fill="#fff"/>
        <path id="Path_54" data-name="Path 54" d="M240.582,402.884a1.3,1.3,0,0,1-1.422-1.159,1.186,1.186,0,0,1,1.253-1.489,1.119,1.119,0,0,1,1.253,1.233,1.294,1.294,0,0,1-1.085,1.415" transform="translate(-231.553 -397.174)" fill="#fff"/>
        <path id="Path_55" data-name="Path 55" d="M236.152,402.884a1.287,1.287,0,0,1-1.422-1.159,1.186,1.186,0,0,1,1.247-1.489,1.125,1.125,0,0,1,1.26,1.233,1.294,1.294,0,0,1-1.085,1.415" transform="translate(-230.108 -397.174)" fill="#fff"/>
        <path id="Path_56" data-name="Path 56" d="M253.124,421.05c.411.593,1.065.4,1.631.512-2.021,1.011-4.043.485-6.064.168,1.348-1.125,2.978-.465,4.461-.674" transform="translate(-234.675 -403.967)" fill="#fff"/>
        <path id="Path_57" data-name="Path 57" d="M319.619,401.522c-.088.829-.458,1.348-1.247,1.348a1.287,1.287,0,0,1-1.348-1.449,1.24,1.24,0,0,1,1.516-1.246c.822.088,1.065.674,1.085,1.348" transform="translate(-256.962 -397.147)" fill="#fff"/>
        <path id="Path_58" data-name="Path 58" d="M324.792,401.523c-.081.829-.458,1.348-1.24,1.348a1.28,1.28,0,0,1-1.348-1.449,1.24,1.24,0,0,1,1.509-1.247,1.179,1.179,0,0,1,1.085,1.348" transform="translate(-258.651 -397.148)" fill="#fff"/>
        <path id="Path_61" data-name="Path 61" d="M295.056,426.6a.472.472,0,0,1,.458-.438c.593-.2.707.115.674.613h-.034a1.731,1.731,0,0,0,.047,2.021c.708.674,1.752.3,2.54.822a10.214,10.214,0,0,1-4.521.094l.863-.768c-.1-.209-.209-.418-.317-.62a1.125,1.125,0,0,1-.034-1.065c.108-.216.31-.384.344-.674" transform="translate(-249.527 -405.613)" fill="#fff"/>
        <path id="Path_62" data-name="Path 62" d="M371.886,420.988c.553.728,1.348.35,2.069.478-.91.889-2.055.512-3.106.573s-2.021,0-3.019,0V420.86l4.077.1" transform="translate(-273.538 -403.904)" fill="#fff"/>
        <path id="Path_63" data-name="Path 63" d="M388.139,398.253a1.093,1.093,0,0,1-.95,0,1.065,1.065,0,0,1-.5-.411,1.267,1.267,0,0,1,.323-1.961,1.078,1.078,0,0,1,1.206,0,1.294,1.294,0,0,1,.384,1.961.674.674,0,0,1-.465.4" transform="translate(-279.582 -395.696)" fill="#fff"/>
        <path id="Path_64" data-name="Path 64" d="M385.54,402.761a1.106,1.106,0,0,1-.943,0,1.012,1.012,0,0,1-.5-.418,1.253,1.253,0,0,1,.323-1.954,1.065,1.065,0,0,1,1.206,0,1.294,1.294,0,0,1,.378,1.961.674.674,0,0,1-.465.4" transform="translate(-278.736 -397.166)" fill="#fff"/>
        <path id="Path_65" data-name="Path 65" d="M390.62,402.761a1.117,1.117,0,0,1-.95,0,1,1,0,0,1-.492-.418,1.254,1.254,0,0,1,.323-1.954,1.065,1.065,0,0,1,1.206,0,1.294,1.294,0,0,1,.377,1.961.673.673,0,0,1-.465.4" transform="translate(-280.393 -397.166)" fill="#fff"/>
        <path id="Path_68" data-name="Path 68" d="M359.39,419.654c.97-1.84.182-3.854.593-5.754.674,1.7.263,3.457.3,5.188,0,.519-.425.64-.89.566" transform="translate(-270.785 -401.634)" fill="#fff"/>
        <path id="Path_69" data-name="Path 69" d="M296.774,426.557l-.674-.613c1.92-.734,1.92-.734,3.14.4a2.512,2.512,0,0,0-2.493.209" transform="translate(-250.14 -405.397)" fill="#fff"/>
        <path id="Path_70" data-name="Path 70" d="M390.37,421.569c.411-.094.876-.094,1.132-.526l1.044-.034c.283.478.782.492,1.24.586a2.911,2.911,0,0,1-3.416,0" transform="translate(-280.89 -403.954)" fill="#fff"/>
        <path id="Path_72" data-name="Path 72" d="M296.843,429.1a1.178,1.178,0,0,1-.041-2.022,4.136,4.136,0,0,0,.041,2.022" transform="translate(-250.188 -405.934)" fill="#fff"/>
        <path id="Path_73" data-name="Path 73" d="M227.917,413.34c.135-.1.27-.2.411-.29v2.406c-.606-.613-.256-1.422-.438-2.116" transform="translate(-227.89 -401.357)" fill="#fff"/>
        <path id="Path_78" data-name="Path 78" d="M381.45,408.578a2.457,2.457,0,0,1-.041-.5c.323-.135.8-.128.822.168s-.452.35-.782.33" transform="translate(-277.967 -399.708)" fill="#fff"/>
        <path id="Path_79" data-name="Path 79" d="M229.569,418.73l.4.472a.425.425,0,0,1-.4-.472" transform="translate(-228.437 -403.21)" fill="#fff"/>
        <path id="Path_80" data-name="Path 80" d="M295,429.38c.1.209.209.411.317.62a.586.586,0,0,1-.317-.62" transform="translate(-249.777 -406.684)" fill="#fff"/>
        <path id="Path_81" data-name="Path 81" d="M295.288,426.84l-.344.674a.614.614,0,0,1,.344-.674" transform="translate(-249.759 -405.855)" fill="#fff"/>
        <path id="Path_82" data-name="Path 82" d="M232.21,421.07l.674.384a.586.586,0,0,1-.674-.384" transform="translate(-229.299 -403.973)" fill="#fff"/>
        <path id="Path_83" data-name="Path 83" d="M231,420.21l.465.391a.419.419,0,0,1-.465-.391" transform="translate(-228.904 -403.693)" fill="#fff"/>
        <path id="Path_84" data-name="Path 84" d="M230.2,419.46l.5.492a.512.512,0,0,1-.5-.492" transform="translate(-228.643 -403.448)" fill="#fff"/>
        <path id="Path_85" data-name="Path 85" d="M228.724,417.19a.85.85,0,0,1,.384.741.674.674,0,0,1-.384-.741" transform="translate(-228.158 -402.708)" fill="#fff"/>
        <path id="Path_87" data-name="Path 87" d="M341.526,403.36a.593.593,0,0,1-.546.559.633.633,0,0,1,.546-.559" transform="translate(-264.78 -398.196)" fill="#fff"/>
        <path id="Path_99" data-name="Path 99" d="M237.939,408.3l-3.032.087a1.457,1.457,0,0,0-1.226-.613q.094-.2.209-.4h1.5c.627.917,1.913,0,2.547.937" transform="translate(-229.779 -399.507)" fill="#fff"/>
        <path id="Path_100" data-name="Path 100" d="M232.46,418.69a1.738,1.738,0,0,1,.714.964c-.559-.081-.674-.478-.714-.964" transform="translate(-229.381 -403.197)" fill="#fff"/>
        <path id="Path_101" data-name="Path 101" d="M231.769,416.9a1.537,1.537,0,0,1,.451,1.213,1.078,1.078,0,0,1-.451-1.213" transform="translate(-229.141 -402.613)" fill="#fff"/>
        <path id="Path_102" data-name="Path 102" d="M231.461,414.15v1.018c-.492-.337-.492-.674,0-1.018" transform="translate(-228.935 -401.716)" fill="#fff"/>
        <path id="Path_103" data-name="Path 103" d="M232.343,411.18a1.879,1.879,0,0,1-.552,1.206c-.054-.505-.034-.99.552-1.206" transform="translate(-229.156 -400.747)" fill="#fff"/>
        <path id="Path_104" data-name="Path 104" d="M228.641,412.118a.99.99,0,0,1,.492-1.058,1.044,1.044,0,0,1-.492,1.058" transform="translate(-228.129 -400.708)" fill="#fff"/>
        <path id="Path_105" data-name="Path 105" d="M235.054,408.869a1.347,1.347,0,0,1-1.024.573c.162-.512.566-.593,1.024-.573" transform="translate(-229.893 -399.992)" fill="#fff"/>
        <path id="Path_106" data-name="Path 106" d="M234.74,421l.485.108-.505.364V421" transform="translate(-230.118 -403.95)" fill="#fff"/>
        <path id="Path_107" data-name="Path 107" d="M234,420.46l.519.337L234,420.46" transform="translate(-229.883 -403.774)" fill="#fff"/>
        <path id="Path_108" data-name="Path 108" d="M233.042,410.38a.674.674,0,0,1-.492.6.674.674,0,0,1,.492-.6" transform="translate(-229.41 -400.486)" fill="#fff"/>
        <path id="Path_109" data-name="Path 109" d="M229.37,410.793a.593.593,0,0,1,.472-.613.735.735,0,0,1-.472.613" transform="translate(-228.372 -400.421)" fill="#fff"/>
        <path id="Path_110" data-name="Path 110" d="M233.82,409.66a.708.708,0,0,1-.579.512.708.708,0,0,1,.579-.512" transform="translate(-229.635 -400.251)" fill="#fff"/>
        <path id="Path_111" data-name="Path 111" d="M230,409.986a.674.674,0,0,1,.573-.546.674.674,0,0,1-.573.546" transform="translate(-228.578 -400.179)" fill="#fff"/>
        <path id="Path_112" data-name="Path 112" d="M230.79,409.286a.573.573,0,0,1,.613-.438l-.613.438" transform="translate(-228.836 -399.986)" fill="#fff"/>
      </g>
      <g id="Group_2" data-name="Group 2" transform="translate(0 0.023)">
        <path id="Path_19" data-name="Path 19" d="M189.088,414.547a1.057,1.057,0,0,0,1.024-.526c3.672.169,4.582-.674,4.622-4.292v-7.91c0-2.109,0-2.109,2.021-2.129h1.974a3.018,3.018,0,0,0-1.422,3.012c.034,2.466-.04,4.932,0,7.412.074,3.012.97,3.854,4.043,3.975.674.263,1.509-.283,2.021.478a6.67,6.67,0,0,1-6.064-.108,1.7,1.7,0,0,0-2.021-.067,6.853,6.853,0,0,1-6.287.168" transform="translate(-61.675 -397.022)" fill="#fff"/>
        <path id="Path_22" data-name="Path 22" d="M60.842,416.478c2.021-.532,2.183-.674,2.257-2.426s0-3.4,0-5.1c0-2.021,0-2.021,1.934-2.021.337,0,.674.061,1.125.108a23.446,23.446,0,0,0-.35,5.721A3.6,3.6,0,0,0,68,416.451c1.085.451,2.217.108,3.329.209a9.513,9.513,0,0,1,2.156-.526,1.119,1.119,0,0,1,.674.249h0c1.348.6,2.843.148,4.258.29a5.39,5.39,0,0,1,1.186.034.438.438,0,0,1,.168.674c-4.1.216-8.193.182-12.29,0a3.443,3.443,0,0,0-1.24-.377c-.923-.505-1.7-.95-2.823-.088a3.079,3.079,0,0,1-3.726.04c.236-.485.761-.283,1.125-.478" transform="translate(-19.495 -399.384)" fill="#fff"/>
        <path id="Path_23" data-name="Path 23" d="M102.889,399.79a3.271,3.271,0,0,0-.923,2.857v10.68c0,.95.135,1.846-1.348,1.819s-1.247-1.038-1.253-1.913V401.778c0-2.1,0-2.1,2.021-2.089.424,0,.842.047,1.509.088" transform="translate(-32.433 -397.021)" fill="#fff"/>
        <path id="Path_25" data-name="Path 25" d="M144.73,399.7c-1.3,1.044-1.105,2.116-1.112,3.113v10.707c0,.768.108,1.556-1.071,1.6-1,0-1.59-.115-1.577-1.348.054-4.245.04-8.5,0-12.742,0-.923.229-1.455,1.28-1.348.674.061,1.348,0,2.466,0" transform="translate(-46.008 -397.015)" fill="#fff"/>
        <path id="Path_26" data-name="Path 26" d="M88.963,414.554H87.953c-.175-.094-.236-.2-.182-.31s.108-.162.169-.162c.734-.532,1.6-.957,1.6-2.062.674-1,.391-2.136.411-3.214.047-2.385,0-4.77,0-7.156,0-1.927,0-1.927,1.954-1.961h1.941a3.315,3.315,0,0,0-1.267,2.9q.067,3.834,0,7.661c-.04,1.873-.539,3.538-2.513,4.312a.849.849,0,0,1-1.1-.034" transform="translate(-28.648 -397.022)" fill="#fff"/>
        <path id="Path_27" data-name="Path 27" d="M209.432,414.56c-.674-.081-1.5.229-2.022-.478a4.4,4.4,0,0,0,1.981-4.171v-8.18c0-2.156-.108-2.021,2.129-2.021H213.2a3.241,3.241,0,0,0-1.253,2.891c.047,2.554.074,5.114,0,7.668-.061,1.833-.519,3.544-2.513,4.306" transform="translate(-67.68 -397.028)" fill="#fff"/>
        <path id="Path_30" data-name="Path 30" d="M135.632,407.569c-1.186.087-.937,1.031-.95,1.718-.04,2.533,0,5.067,0,7.607,0,2.055-.573,3.854-2.756,4.663-.519.229-.714-.1-.856-.512a9.659,9.659,0,0,1,.741-2.7,1.092,1.092,0,0,0,.074-.991,57.227,57.227,0,0,1,.182-8.86c0-.627-.243-1.6.741-1.563s2.2-.9,2.85.6" transform="translate(-42.778 -399.301)" fill="#fff"/>
        <path id="Path_32" data-name="Path 32" d="M120.139,416.316c2.163-1.348,2.271-3.436,1.961-5.606a2.738,2.738,0,0,0-2.345-2.655c-1.348-.189-2.756-.216-3.369,1.469-.067.2-.344.323-.559.519-.074-2.513.438-3.187,2.614-3.369.842-.074,1.691,0,2.54,0a3.945,3.945,0,0,1,3.773,3.517h0c.4,2.554.91,5.141-2.17,6.543l.04-.034c-.2.431-.613.5-1.017.593-.674-.047-1.469.142-1.462-.943" transform="translate(-37.804 -399.289)" fill="#fff"/>
        <path id="Path_33" data-name="Path 33" d="M34.974,417.451c-.431,2.021-1.294,3.692-3.369,4.46a1.349,1.349,0,0,1-.492.1,2.764,2.764,0,0,1-.613-.162c1.55-1.59,1.792-3.538,1.765-5.586V408.1c0-.674.1-1.267.93-1.159s1.765-.566,2.3.553l-.472.2a31.629,31.629,0,0,0-.04,9.763" transform="translate(-9.973 -399.353)" fill="#fff"/>
        <path id="Path_35" data-name="Path 35" d="M16.651,417.333a80.594,80.594,0,0,1-9.2,0,.788.788,0,0,1,0-.249c.364-1.146,2.318-.539,2.3-1.974,0-1.981.559-4.043-.424-5.916-.768-.512-1.732-.357-2.54-.721-.465-.3-1.1-.492-.91-1.267,2.608-.674,5.249-.317,7.877-.209.384,0,.168.357.155.566l-.761.108c-.728,2.648-.357,5.357-.249,8.018.074,1.718,1.765.613,2.7.93h.849a.451.451,0,0,1,.229.674" transform="translate(-1.932 -399.343)" fill="#fff"/>
        <path id="Path_37" data-name="Path 37" d="M57.893,416.654a1.423,1.423,0,0,1-1.125.478c-1.031-.553-1.934-.883-3.073.047a2.439,2.439,0,0,1-3.046-.047.674.674,0,0,1,.593-.546c2.271-.135,2.574-.377,2.648-2.419.061-1.61,0-3.227,0-4.838,0-1.8.047-1.806,1.839-1.86h1.55c-1.267,2.6-.761,5.262-.546,7.89.047.634.64.964,1.139,1.294" transform="translate(-16.546 -399.56)" fill="#fff"/>
        <path id="Path_39" data-name="Path 39" d="M48.81,416.788l-.593.546c-.984-.438-1.961-.876-2.951,0-.775.182-1.651.8-2.075-.492a3.876,3.876,0,0,0,2.062-3.787c-.007-1.644,0-3.221,0-4.831a11.737,11.737,0,0,1,3.571,0c-1.449,1.893-1.462,6.414-.047,8.578" transform="translate(-14.112 -399.761)" fill="#fff"/>
        <path id="Path_41" data-name="Path 41" d="M21.551,417h-.505c-.168-.108-.229-.215-.175-.33s.108-.175.168-.175a4.257,4.257,0,0,0,1.934-3.854c.04-1.172,0-2.351,0-3.524,0-1.893.04-1.893,1.907-1.927a7.03,7.03,0,0,1,.748.074.4.4,0,0,1,.108.674,30.813,30.813,0,0,0-.189,4.528c-.121,2.022-.782,3.767-2.843,4.623a1.038,1.038,0,0,1-1.172-.067" transform="translate(-6.826 -399.468)" fill="#fff"/>
        <path id="Path_42" data-name="Path 42" d="M3.846,407.881c.458.081.937.142,1.193.62a1.044,1.044,0,0,1-.424,1.1c-1.833,1.752-1.846,3.652-.505,5.673a2.184,2.184,0,0,1,.62,1.57c-.182.391-.445.6-.889.391C.308,415.839-.628,413.865.47,410a4.129,4.129,0,0,1,2.1-1.981H2.525c.371-.519.836-.425,1.348-.2" transform="translate(-0.036 -399.614)" fill="#fff"/>
        <path id="Path_46" data-name="Path 46" d="M40.913,416.8c.553.741,1.348.364,2.075.492-1,.943-2.237.478-3.369.559-.923.067-1.853,0-2.776,0-1.139-2.5-.357-5.148-.553-7.715-.054-.721-.222-1.55.593-2.021-.276,2.513-.067,5.026-.142,7.54,0,.849.283,1.226,1.159,1.193,1-.047,2.021,0,3.019,0" transform="translate(-11.835 -399.769)" fill="#fff"/>
        <path id="Path_48" data-name="Path 48" d="M5.66,417.656l.674-.64c2.446-.674,3.174-2.338,2.864-4.717a4.105,4.105,0,0,1,.674-3.369c.674.35.573.977.579,1.556v5.067c0,1.826-.047,1.84-1.954,2.082a1.609,1.609,0,0,0-1.132.451,1.725,1.725,0,0,1-1.725-.377" transform="translate(-1.864 -400.036)" fill="#fff"/>
        <path id="Path_49" data-name="Path 49" d="M19.379,416.8v.505c-4.077.074-3.585.2-3.612-3.524v-4.09c0-.6,0-1.213.6-1.576a48.435,48.435,0,0,0-.155,6.778c0,1.927,0,1.927,1.9,1.934h1.26" transform="translate(-5.165 -399.769)" fill="#fff"/>
        <path id="Path_50" data-name="Path 50" d="M10.906,402.846c-2.021-.148-2.136-.263-1.813-2.412a2.594,2.594,0,0,1,1.981-.081c.674.573,1.226,1.179.33,2.021l.054-.054a.788.788,0,0,1-.559.553Z" transform="translate(-2.945 -397.187)" fill="#fff"/>
        <path id="Path_51" data-name="Path 51" d="M78.485,425.51c.842.128,1.348.586,1.348,1.348a1.219,1.219,0,0,1-1.449,1.347c-.815-.061-1.139-.626-1.105-1.388a1.267,1.267,0,0,1,1.206-1.267" transform="translate(-25.231 -405.444)" fill="#fff"/>
        <path id="Path_52" data-name="Path 52" d="M119.9,421c.377.6,1,.438,1.556.505-1.247.95-5.316,1.112-6.28.222-.229-.216.054-.451.142-.674l4.582-.061" transform="translate(-37.566 -403.97)" fill="#fff"/>
        <path id="Path_59" data-name="Path 59" d="M23.669,426.908a1.294,1.294,0,0,1-1.273,1.28A1.152,1.152,0,0,1,21.089,427a1.2,1.2,0,0,1,1.348-1.422c.768,0,1.145.593,1.253,1.348" transform="translate(-6.895 -405.461)" fill="#fff"/>
        <path id="Path_60" data-name="Path 60" d="M27.15,425.548a1.28,1.28,0,0,1,1.139,1.4A1.206,1.206,0,0,1,27,428.2a1.294,1.294,0,0,1-1.28-1.5,1.348,1.348,0,0,1,1.428-1.146" transform="translate(-8.409 -405.456)" fill="#fff"/>
        <path id="Path_66" data-name="Path 66" d="M6.248,400.407a3.4,3.4,0,0,1,.04.451,1.22,1.22,0,0,1,.067,1.247l-.593.856h0a.674.674,0,0,1-1.011-.047h0c-.99-.674-1.26-1.489-.438-2.493a2.911,2.911,0,0,1,1.927,0" transform="translate(-1.273 -397.207)" fill="#fff"/>
        <path id="Path_67" data-name="Path 67" d="M166.9,421c.269.438.741.445,1.172.546-1.482.991-3.16.283-4.717.532V420.9l3.578.1" transform="translate(-53.311 -403.941)" fill="#fff"/>
        <path id="Path_71" data-name="Path 71" d="M130.3,427.791a2.1,2.1,0,0,0,.458-.081l.674.674c-.4.674-1.125.458-1.651.788-.31-.788.472-.91.5-1.395" transform="translate(-42.336 -406.162)" fill="#fff"/>
        <path id="Path_74" data-name="Path 74" d="M28.078,407.89c-.034-.222-.067-.438-.108-.674.4-.162.99-.182,1.044.168s-.559.411-.937.492" transform="translate(-9.148 -399.44)" fill="#fff"/>
        <path id="Path_75" data-name="Path 75" d="M89.543,421.75l1.1.034a.977.977,0,0,1-1.112.411v-.445" transform="translate(-29.228 -404.218)" fill="#fff"/>
        <path id="Path_76" data-name="Path 76" d="M69.45,421.852a1.119,1.119,0,0,1,1.24.377,1.078,1.078,0,0,1-1.24-.377" transform="translate(-22.678 -404.232)" fill="#fff"/>
        <path id="Path_77" data-name="Path 77" d="M21.887,421.75l1.172.067a.984.984,0,0,1-1.179.391c0-.155,0-.3,0-.458" transform="translate(-7.161 -404.218)" fill="#fff"/>
        <path id="Path_86" data-name="Path 86" d="M52.2,405.03l-.121.209-.094-.094Z" transform="translate(-16.979 -398.764)" fill="#fff"/>
        <path id="Path_88" data-name="Path 88" d="M79.333,416.481c-.526.761-1.348.451-2.021.519q-.445-.249-.081-.627v-8.989a7.151,7.151,0,0,1,2.736-.182c.256,0,.6.169.526.364s-.445.485-.674.721c-.674,2.7.222,5.478-.465,8.173" transform="translate(-25.163 -399.454)" fill="#fff"/>
        <path id="Path_89" data-name="Path 89" d="M53.6,400.3c.889-.283,1.7-.411,2.271.62.175.323.559.121.822-.074a.781.781,0,0,1-.074,1.138c-.243,0-.613-.067-.674.061-.579.775-1.24,1.26-2.129.573s-.606-1.489-.2-2.3Z" transform="translate(-17.387 -397.156)" fill="#fff"/>
        <path id="Path_90" data-name="Path 90" d="M57.46,398.257a1.1,1.1,0,0,1-.943,0,.815.815,0,0,1-.485-.4,1.253,1.253,0,0,1,.33-1.947,1.091,1.091,0,0,1,1.206,0,1.28,1.28,0,0,1,.357,1.954.674.674,0,0,1-.472.391" transform="translate(-18.194 -395.73)" fill="#fff"/>
        <path id="Path_91" data-name="Path 91" d="M58.231,402c0-.377.047-.761.074-1.138.606-.95,1.348-.883,2.021-.175a1.166,1.166,0,0,1-.135,1.779c-.829.748-1.509.465-2.021-.465" transform="translate(-18.999 -397.174)" fill="#fff"/>
        <path id="Path_92" data-name="Path 92" d="M80.422,417.043v-6.3c0-.674-.148-1.348.472-1.873l.054,8.173Z" transform="translate(-26.252 -400.016)" fill="#fff"/>
        <path id="Path_93" data-name="Path 93" d="M85.766,420.971v.472c-1.536-.189-3.18.539-4.616-.532l4.616.061" transform="translate(-26.495 -403.944)" fill="#fff"/>
        <path id="Path_94" data-name="Path 94" d="M75.587,420.81l.081.627c-1.2-.148-2.493.451-3.6-.458a19.191,19.191,0,0,0,3.517-.169" transform="translate(-23.533 -403.911)" fill="#fff"/>
        <path id="Path_95" data-name="Path 95" d="M58.31,399.291a.458.458,0,0,1,.472-.391c0,.283-.148.458-.472.391" transform="translate(-19.044 -396.764)" fill="#fff"/>
        <path id="Path_96" data-name="Path 96" d="M56.19,398.91a.465.465,0,0,1,.485.4c-.337.081-.451-.108-.485-.4" transform="translate(-18.353 -396.767)" fill="#fff"/>
        <path id="Path_97" data-name="Path 97" d="M158.487,406.809a29.17,29.17,0,0,0-7.1.317c-2.7.613-4.407,2.426-4.508,4.824s1.435,4.211,4.171,5.1a10.022,10.022,0,0,0,3.275.357c.8,0,1.011.4.97,1.125a5.755,5.755,0,0,1-1.86,3.821c3.106-.391,3.989-1.381,4.535-4.892a.91.91,0,0,0,0-1.179c.175-3.147-.512-6.347.539-9.474m-3.2,5.5h0v3.308a.822.822,0,0,1-.708.889,4.716,4.716,0,0,1-4.353-1.57,4.979,4.979,0,0,1-.162-5.3,4.319,4.319,0,0,1,4.285-1.624,1.058,1.058,0,0,1,.957,1.24v3.059" transform="translate(-47.933 -399.323)" fill="#fff"/>
        <path id="Path_98" data-name="Path 98" d="M182.07,412.184c-.526-3.369-2.527-5.1-5.909-5.094-3.632,0-5.808,2.075-6.064,5.815-.088,1.408-.222,2.7-1.516,3.592,0,1,.64.674,1.172.546.505,0,.822-.674,1.55-.06,3.484,2.978,6.165,2.978,9.561,0,.674-.566,1.031-.142,1.536-.047.6.323,1.085.424,1.024-.526-1.348-1.132-1.145-2.763-1.381-4.252m-2.837,3.544a2.965,2.965,0,0,1-2.513,2.257,2.81,2.81,0,0,1-2.978-1.543,6.812,6.812,0,0,1-.627-5.9c.573-1.657,1.482-2.385,2.918-2.412s2.4.762,3.046,2.3a9.535,9.535,0,0,1,.445,3.093,11.272,11.272,0,0,1-.29,2.2" transform="translate(-55.014 -399.436)" fill="#fff"/>
        <path id="Path_113" data-name="Path 113" d="M7.547,402.4c0-.418-.047-.829-.067-1.247.472.391.606.8.067,1.247" transform="translate(-2.464 -397.498)" fill="#fff"/>
      </g>
    </g>
    <g id="Group_7" data-name="Group 7" transform="translate(1658.187 355.12)">
      <g id="Group_4" data-name="Group 4" transform="translate(0 0.008)">
        <path id="Path_114" data-name="Path 114" d="M8.938,455.611v.128a1.859,1.859,0,0,1-.222.99,1.2,1.2,0,0,1-.579.559,1.771,1.771,0,0,1-.809.236l-.836.047a12.117,12.117,0,0,1-2.918-.175,4.3,4.3,0,0,1-2.021-.964A4.239,4.239,0,0,1,.381,454.5,10.417,10.417,0,0,1,0,451.407v-3.524a4.238,4.238,0,0,1,.391-2.021,2.079,2.079,0,0,1,.485-.6,2.7,2.7,0,0,1,.674-.371,3.992,3.992,0,0,1,.505-.155,4.593,4.593,0,0,1,.559-.108l.822-.054h2.52c.8,0,1.348,0,1.718-.033l.674-.061h.148v.115a1.8,1.8,0,0,1-.229.99,1.624,1.624,0,0,1-.573.58,2.33,2.33,0,0,1-.8.222q-.424.041-.849.04H2.874l-.189.034-.128.054a.343.343,0,0,0-.168.155.445.445,0,0,0-.094.249,2.957,2.957,0,0,0,0,.364l.034,2.264h4.6a1.887,1.887,0,0,1-.465,1.348,1.72,1.72,0,0,1-1.348.506h-2.8a7.9,7.9,0,0,0,.162,2.082,2.977,2.977,0,0,0,.674,1.348,2.494,2.494,0,0,0,1.193.674,6.727,6.727,0,0,0,1.765.209q1.213,0,1.88-.04l.809-.054h0Z" transform="translate(0.009 -444.385)" fill="#fff"/>
        <path id="Path_115" data-name="Path 115" d="M16.927,455.693v1.476a.808.808,0,0,0,.04.337,2.77,2.77,0,0,1-1.765-.485,1.921,1.921,0,0,1-.606-1.59v-6.624a5.343,5.343,0,0,1,.276-1.738,4.129,4.129,0,0,1,.809-1.422,3.654,3.654,0,0,1,1.273-.957,3.886,3.886,0,0,1,1.7-.35,2.25,2.25,0,0,1,.95.189,1.348,1.348,0,0,1,.674.559,1.41,1.41,0,0,1,.148.6,1.484,1.484,0,0,1-.054.391l-.04.115-.094-.04a3.972,3.972,0,0,0-.606-.155,3.866,3.866,0,0,0-.775-.067,2.862,2.862,0,0,0-.371.034,2.084,2.084,0,0,0-.485.168,1.928,1.928,0,0,0-.5.364,2.019,2.019,0,0,0-.4.626,3.235,3.235,0,0,0-.182.62,4.719,4.719,0,0,0-.061.8v.2h2.52a1.887,1.887,0,0,1-.472,1.348,1.706,1.706,0,0,1-1.348.505h-.674Z" transform="translate(-4.752 -444.339)" fill="#fff"/>
        <path id="Path_116" data-name="Path 116" d="M23.737,454.876a3.818,3.818,0,0,1,1.139-.471,5.331,5.331,0,0,1,1.348-.162,5.982,5.982,0,0,1,1.846.283,3.308,3.308,0,0,0-.243-1.031,1.6,1.6,0,0,0-.728-.836,1.311,1.311,0,0,0-.4-.142,2.138,2.138,0,0,0-.492-.047H26a3.542,3.542,0,0,0-.526.081q-.263.074-.526.162a4.529,4.529,0,0,1-.519.155,1.928,1.928,0,0,1-.505.067,1.113,1.113,0,0,1-.505-.115,1.1,1.1,0,0,1-.391-.425l-.04-.074.04-.061a4.431,4.431,0,0,1,1.314-.957A4.5,4.5,0,0,1,26,450.88h.317a3.92,3.92,0,0,1,1.563.3,3.8,3.8,0,0,1,1.233.849,4.453,4.453,0,0,1,1.105,3.045v.148a4.823,4.823,0,0,1-1.011,3.146,3.851,3.851,0,0,1-1.166.97,4.19,4.19,0,0,1-1.523.472h-.465a5.825,5.825,0,0,1-.822-.067,3.179,3.179,0,0,1-.842-.256,3.063,3.063,0,0,1-.782-.438,2.19,2.19,0,0,1-.6-.674,2.419,2.419,0,0,1-.371-1.348v-.114a2.25,2.25,0,0,1,.3-1.213,2.377,2.377,0,0,1,.8-.842m3.861.91-.553-.074h-.627a4.012,4.012,0,0,0-.505,0,2.151,2.151,0,0,0-.445.1,1.388,1.388,0,0,0-.707.465.9.9,0,0,0-.155.256,1.347,1.347,0,0,0-.074.3.545.545,0,0,0,0,.168,1.468,1.468,0,0,0,.061.4.875.875,0,0,0,.222.4,1.126,1.126,0,0,0,.438.324,1.912,1.912,0,0,0,.775.128.88.88,0,0,0,.222,0,1.627,1.627,0,0,0,.916-.3,1.242,1.242,0,0,0,.317-.269,2.1,2.1,0,0,0,.229-.351,2.345,2.345,0,0,0,.276-.728,3.741,3.741,0,0,0,.074-.674h-.168l-.222-.061" transform="translate(-7.378 -446.472)" fill="#fff"/>
        <path id="Path_117" data-name="Path 117" d="M44.119,453.316a5.082,5.082,0,0,1-.3,1.732,4.52,4.52,0,0,1-.842,1.428,3.989,3.989,0,0,1-1.348.95,4.115,4.115,0,0,1-1.725.357,3.778,3.778,0,0,1-1.617-.357,4.453,4.453,0,0,1-1.348-.95,4.352,4.352,0,0,1-.889-1.415,4.65,4.65,0,0,1-.323-1.745,5.128,5.128,0,0,1,.29-1.745,4.252,4.252,0,0,1,.829-1.428,4.04,4.04,0,0,1,1.314-.95,4.121,4.121,0,0,1,1.732-.357,3.8,3.8,0,0,1,1.9.485v-2.628a1.894,1.894,0,0,1,.62-1.6,2.858,2.858,0,0,1,1.772-.478,2.643,2.643,0,0,0,0,.337,3.729,3.729,0,0,1-.034.559,8.2,8.2,0,0,0,0,.916Zm-4.164,2.857a1.773,1.773,0,0,0,.566-.108,1.617,1.617,0,0,0,.627-.425,2.538,2.538,0,0,0,.505-.876,5.39,5.39,0,0,0,0-2.931,2.54,2.54,0,0,0-.505-.876,1.7,1.7,0,0,0-.627-.424,1.77,1.77,0,0,0-.566-.108,1.806,1.806,0,0,0-.573.108,1.7,1.7,0,0,0-.627.424,2.54,2.54,0,0,0-.505.876,5.39,5.39,0,0,0,0,2.931,2.538,2.538,0,0,0,.505.876,1.617,1.617,0,0,0,.627.425,1.8,1.8,0,0,0,.573.108" transform="translate(-11.648 -444.428)" fill="#fff"/>
        <path id="Path_118" data-name="Path 118" d="M51.477,454.869a3.9,3.9,0,0,1,1.139-.472,5.4,5.4,0,0,1,1.348-.162,5.949,5.949,0,0,1,1.846.283,3.308,3.308,0,0,0-.243-1.031,1.6,1.6,0,0,0-.721-.836,1.345,1.345,0,0,0-.4-.141,2.232,2.232,0,0,0-.5-.047h-.2a3.526,3.526,0,0,0-.526.081c-.175.047-.35.1-.519.162a5.161,5.161,0,0,1-.526.155,1.933,1.933,0,0,1-.505.067,1.114,1.114,0,0,1-.505-.115,1.1,1.1,0,0,1-.391-.425l-.04-.088.034-.061a4.468,4.468,0,0,1,2.971-1.381h.317a3.78,3.78,0,0,1,2.81,1.152,4.481,4.481,0,0,1,1.1,3.046v.148a4.824,4.824,0,0,1-1,3.16,3.855,3.855,0,0,1-1.166.97,4.158,4.158,0,0,1-1.523.472h-.465a5.885,5.885,0,0,1-.822-.068,3.192,3.192,0,0,1-.842-.256,3.056,3.056,0,0,1-.782-.438,2.189,2.189,0,0,1-.6-.674,2.474,2.474,0,0,1-.371-1.348v-.115a2.312,2.312,0,0,1,.3-1.213,2.379,2.379,0,0,1,.782-.829m3.868.9-.5-.094H54.22a4.012,4.012,0,0,0-.505,0,2.137,2.137,0,0,0-.445.1,1.422,1.422,0,0,0-.674.465.751.751,0,0,0-.148.256,1.057,1.057,0,0,0-.081.3.988.988,0,0,0,0,.168,1.456,1.456,0,0,0,.054.4,1.018,1.018,0,0,0,.222.4,1.179,1.179,0,0,0,.438.323,1.919,1.919,0,0,0,.775.128.992.992,0,0,0,.229,0,1.61,1.61,0,0,0,.91-.3,1.137,1.137,0,0,0,.317-.27,2.088,2.088,0,0,0,.229-.35,2.345,2.345,0,0,0,.276-.728,3.236,3.236,0,0,0,.074-.674h-.168l-.222-.061" transform="translate(-16.433 -446.465)" fill="#fff"/>
        <path id="Path_119" data-name="Path 119" d="M71.772,455.782v1.476a2.656,2.656,0,0,0,0,.337A2.817,2.817,0,0,1,70,457.109a1.907,1.907,0,0,1-.613-1.59v-2.628a4,4,0,0,0-.162-1.26,1.92,1.92,0,0,0-.411-.748,1.221,1.221,0,0,0-.559-.364,2.109,2.109,0,0,0-1.247,0,1.239,1.239,0,0,0-.566.364,1.914,1.914,0,0,0-.4.748,4.265,4.265,0,0,0-.148,1.26v4.366a.807.807,0,0,0,.04.337,2.77,2.77,0,0,1-1.765-.485,1.921,1.921,0,0,1-.606-1.59v-8.827a1.94,1.94,0,0,1,.579-1.6,2.694,2.694,0,0,1,1.732-.478v4.508a3.98,3.98,0,0,1,.889-.2,6.555,6.555,0,0,1,2.338.1,3.367,3.367,0,0,1,1.348.606,3.207,3.207,0,0,1,.95,1.24,4.958,4.958,0,0,1,.364,2.021Z" transform="translate(-20.725 -444.427)" fill="#fff"/>
        <path id="Path_120" data-name="Path 120" d="M92.169,446.712a1.981,1.981,0,0,1,.586-1.61,2.693,2.693,0,0,1,1.745-.485,1.273,1.273,0,0,1-.04.357,2.49,2.49,0,0,0,0,.552V456.7a5.444,5.444,0,0,0,0,.553,2.646,2.646,0,0,0,0,.337,2.768,2.768,0,0,1-1.752-.478,1.927,1.927,0,0,1-.6-1.6v-4H86.867v5.734a.806.806,0,0,0,.04.337,2.808,2.808,0,0,1-1.765-.478,1.907,1.907,0,0,1-.606-1.6v-8.807a2.021,2.021,0,0,1,.593-1.61,2.7,2.7,0,0,1,1.745-.485,1.276,1.276,0,0,1-.04.357,2.484,2.484,0,0,0,0,.552v4.151H92.1Z" transform="translate(-27.566 -444.427)" fill="#fff"/>
        <path id="Path_121" data-name="Path 121" d="M109.8,455.89a4.757,4.757,0,0,1-.371,2.021,3.277,3.277,0,0,1-.964,1.233,3.371,3.371,0,0,1-1.348.613,6.231,6.231,0,0,1-2.877,0,3.372,3.372,0,0,1-1.348-.613,3.2,3.2,0,0,1-.957-1.233,4.865,4.865,0,0,1-.364-2.021v-2.635a1.907,1.907,0,0,1,.606-1.59,2.781,2.781,0,0,1,1.765-.478,2.648,2.648,0,0,0,0,.337,3.724,3.724,0,0,1-.034.559,8.209,8.209,0,0,0,0,.917v2.89a4.265,4.265,0,0,0,.148,1.26,1.888,1.888,0,0,0,.4.741,1.266,1.266,0,0,0,.559.35,2.111,2.111,0,0,0,1.247,0,1.313,1.313,0,0,0,.559-.35,1.888,1.888,0,0,0,.4-.741,4.263,4.263,0,0,0,.148-1.26v-2.635a1.886,1.886,0,0,1,.613-1.59,2.822,2.822,0,0,1,1.779-.478,1.2,1.2,0,0,1-.04.337,2.55,2.55,0,0,0,0,.559V453Z" transform="translate(-33.124 -446.57)" fill="#fff"/>
        <path id="Path_122" data-name="Path 122" d="M127.711,454.949a4,4,0,0,0-.162-1.26,1.847,1.847,0,0,0-.418-.748,1.277,1.277,0,0,0-.579-.364,2.055,2.055,0,0,0-.633-.095,2.013,2.013,0,0,0-.627.095,1.255,1.255,0,0,0-.559.364,2.022,2.022,0,0,0-.411.748,4.045,4.045,0,0,0-.155,1.26v3.807a2.147,2.147,0,0,0,.04.559c.04.135,0,.263.034.337a2.816,2.816,0,0,1-1.772-.485,1.907,1.907,0,0,1-.613-1.59v-2.628a4.04,4.04,0,0,0-.155-1.26,2.021,2.021,0,0,0-.418-.748,1.347,1.347,0,0,0-.579-.364,2.105,2.105,0,0,0-.674-.095,1.942,1.942,0,0,0-.62.095,1.218,1.218,0,0,0-.559.364,1.913,1.913,0,0,0-.4.748,4.267,4.267,0,0,0-.148,1.26v4.366a.8.8,0,0,0,.04.337,2.8,2.8,0,0,1-1.772-.485,1.907,1.907,0,0,1-.62-1.59v-2.628a4.957,4.957,0,0,1,.364-2.021,3.12,3.12,0,0,1,2.244-1.846,6.424,6.424,0,0,1,1.422-.161,6.622,6.622,0,0,1,1.55.189,3.206,3.206,0,0,1,1.348.674,3.177,3.177,0,0,1,1.348-.674,6.693,6.693,0,0,1,1.55-.189,6.614,6.614,0,0,1,1.435.162,3.424,3.424,0,0,1,1.348.607,3.208,3.208,0,0,1,.95,1.24,4.959,4.959,0,0,1,.364,2.021v4.366a2.657,2.657,0,0,0,.034.337,2.783,2.783,0,0,1-1.765-.485,1.921,1.921,0,0,1-.606-1.59Z" transform="translate(-37.812 -446.485)" fill="#fff"/>
        <path id="Path_123" data-name="Path 123" d="M140.087,454.875a3.9,3.9,0,0,1,1.139-.472,5.391,5.391,0,0,1,1.348-.161,5.951,5.951,0,0,1,1.846.283,3.306,3.306,0,0,0-.243-1.031,1.6,1.6,0,0,0-.728-.836,1.341,1.341,0,0,0-.4-.141,2.233,2.233,0,0,0-.5-.047h-.2a3.549,3.549,0,0,0-.526.081c-.175.047-.35.1-.519.162a5.116,5.116,0,0,1-.526.155,1.93,1.93,0,0,1-.505.067.921.921,0,0,1-.9-.539l-.034-.074.034-.061a4.466,4.466,0,0,1,2.971-1.381h.317a3.779,3.779,0,0,1,2.8,1.152,4.481,4.481,0,0,1,1.1,3.046v.148a4.825,4.825,0,0,1-.991,3.154,3.851,3.851,0,0,1-1.166.97,4.16,4.16,0,0,1-1.523.472h-.465a5.928,5.928,0,0,1-.822-.067,3.191,3.191,0,0,1-.842-.256,3.065,3.065,0,0,1-.782-.438,2.189,2.189,0,0,1-.6-.674,2.472,2.472,0,0,1-.371-1.348v-.115a2.312,2.312,0,0,1,.3-1.213,2.379,2.379,0,0,1,.8-.842m3.868.9-.553-.074H142.8a4.036,4.036,0,0,0-.505,0,2.147,2.147,0,0,0-.445.1,1.421,1.421,0,0,0-.708.465.752.752,0,0,0-.148.256,1.06,1.06,0,0,0-.081.3.977.977,0,0,0,0,.168,1.451,1.451,0,0,0,.054.4,1.018,1.018,0,0,0,.222.4,1.176,1.176,0,0,0,.438.323,1.908,1.908,0,0,0,.775.128.971.971,0,0,0,.229,0,1.609,1.609,0,0,0,.91-.3,1.138,1.138,0,0,0,.317-.27,2.093,2.093,0,0,0,.229-.35,2.35,2.35,0,0,0,.276-.728,3.233,3.233,0,0,0,.074-.674h-.169l-.222-.061" transform="translate(-45.337 -446.472)" fill="#fff"/>
        <path id="Path_124" data-name="Path 124" d="M152.257,454.949a4.962,4.962,0,0,1,.364-2.022,3.3,3.3,0,0,1,.93-1.24,3.2,3.2,0,0,1,1.287-.606,6.511,6.511,0,0,1,2.884,0,3.371,3.371,0,0,1,1.348.606,3.209,3.209,0,0,1,.95,1.24,4.959,4.959,0,0,1,.364,2.022l.074,4.717a2.77,2.77,0,0,1-1.752-.485,1.907,1.907,0,0,1-.62-1.59v-2.628a4,4,0,0,0-.162-1.26,1.848,1.848,0,0,0-.418-.748,1.279,1.279,0,0,0-.579-.364,2.055,2.055,0,0,0-.633-.094,2.026,2.026,0,0,0-.627.094,1.254,1.254,0,0,0-.559.364,2.022,2.022,0,0,0-.411.748,4.039,4.039,0,0,0-.155,1.26v4.7a2.816,2.816,0,0,1-1.772-.485,1.907,1.907,0,0,1-.613-1.59Z" transform="translate(-49.623 -446.485)" fill="#fff"/>
      </g>
      <g id="Group_3" data-name="Group 3" transform="translate(116.74)">
        <path id="Path_125" data-name="Path 125" d="M175.566,455.689v1.476a.807.807,0,0,0,.04.337,2.79,2.79,0,0,1-1.759-.478,1.927,1.927,0,0,1-.593-1.6v-7.9a3.105,3.105,0,0,1,.317-1.489,2.5,2.5,0,0,1,.869-.964,3.732,3.732,0,0,1,1.348-.526,13.1,13.1,0,0,1,1.664-.216,7.059,7.059,0,0,1,1.233.047,6.9,6.9,0,0,1,1.294.3,6.645,6.645,0,0,1,1.226.546,4.339,4.339,0,0,1,1.018.836,3.915,3.915,0,0,1,.674,1.125,3.438,3.438,0,0,1-2.4,4.6,1.727,1.727,0,0,1,.728.472,3.429,3.429,0,0,1,.532.788c.155.3.31.633.465,1s.33.728.519,1.1a4.96,4.96,0,0,0,.445.775c.162.236.31.438.451.606a3.563,3.563,0,0,0,.465.526,1.53,1.53,0,0,1-.377.283,2.428,2.428,0,0,1-.485.148,2.2,2.2,0,0,1-.674,0,2.36,2.36,0,0,1-.822-.263,2.837,2.837,0,0,1-.748-.634,8.354,8.354,0,0,1-.8-1.139c-.276-.472-.6-1.065-.964-1.772a2.464,2.464,0,0,0-.761-.91,3.8,3.8,0,0,0-1.1-.492l-.209-.06a.671.671,0,0,1-.2-.054l-.364-.067-.472-.081-.579-.115Zm1.887-9.521a3.662,3.662,0,0,0-.923.2,1.878,1.878,0,0,0-.579.337,1.07,1.07,0,0,0-.31.438,1.347,1.347,0,0,0-.094.485v2.7c.283.067.579.121.876.168s.526.074.822.1a7.776,7.776,0,0,0,.876.047,3.22,3.22,0,0,0,1.853-.465,2.069,2.069,0,0,0,.8-1.53,1.939,1.939,0,0,0-.209-1.186,2.068,2.068,0,0,0-.761-.782,3.368,3.368,0,0,0-1.125-.411,4.323,4.323,0,0,0-1.246-.067" transform="translate(-173.245 -444.327)" fill="#fff"/>
        <path id="Path_126" data-name="Path 126" d="M197.878,457.827a1.349,1.349,0,0,1,.431.452l.054.054-.054.054a4.441,4.441,0,0,1-3.3,1.442,3.871,3.871,0,0,1-1.617-.35,4.152,4.152,0,0,1-1.348-.957,4.353,4.353,0,0,1-.889-1.415,4.652,4.652,0,0,1-.323-1.745,5.129,5.129,0,0,1,.29-1.745,4.253,4.253,0,0,1,.829-1.428,4.043,4.043,0,0,1,1.348-.95,4.119,4.119,0,0,1,1.732-.357,4.628,4.628,0,0,1,1.145.161,4.008,4.008,0,0,1,1.166.506,2.864,2.864,0,0,1,.9.9,2.467,2.467,0,0,1,.357,1.348,1.92,1.92,0,0,1-.391,1.24,2.88,2.88,0,0,1-.937.748,4.227,4.227,0,0,1-1.145.37,6.6,6.6,0,0,1-1.058.1,7.923,7.923,0,0,1-1.206-.081l-.674-.121a3.188,3.188,0,0,0,.3,1.092,2.276,2.276,0,0,0,.505.674,1.568,1.568,0,0,0,.559.33,1.793,1.793,0,0,0,.505.081,3.366,3.366,0,0,0,.741-.074,4.586,4.586,0,0,0,.674-.169c.182-.061.364-.121.532-.189a1.41,1.41,0,0,1,.492-.087.83.83,0,0,1,.465.128m-2.971-5.37a2.615,2.615,0,0,0-.485.1,1.581,1.581,0,0,0-.552.31,2.162,2.162,0,0,0-.5.633,3.131,3.131,0,0,0-.317,1.044,6.318,6.318,0,0,0,.849.175,4.335,4.335,0,0,0,1.105,0,2.393,2.393,0,0,0,.97-.317,1.058,1.058,0,0,0,.458-.883.936.936,0,0,0-.364-.8,1.65,1.65,0,0,0-1.166-.3" transform="translate(-178.981 -446.465)" fill="#fff"/>
        <path id="Path_127" data-name="Path 127" d="M208.252,457.463a.606.606,0,0,0-.175-.532,2.308,2.308,0,0,0-.613-.411c-.27-.135-.586-.269-.943-.424a7.427,7.427,0,0,1-1.139-.593,2.616,2.616,0,0,1-.741-.627,2.46,2.46,0,0,1-.532-1.644,2.409,2.409,0,0,1,.209-.869,2.022,2.022,0,0,1,.485-.674,2.465,2.465,0,0,1,.674-.458,3.105,3.105,0,0,1,.741-.256,3.658,3.658,0,0,1,.674-.074h.222a4.407,4.407,0,0,1,3.214,1.624l.054.061-.054.074a1.4,1.4,0,0,1-.411.391.848.848,0,0,1-.465.128,1.3,1.3,0,0,1-.505-.1l-.526-.216c-.236-.094-.458-.182-.674-.249a2.024,2.024,0,0,0-.627-.1.888.888,0,0,0-.613.175.653.653,0,0,0-.02,1.011,2.886,2.886,0,0,0,.762.438c.391.161.8.337,1.233.532a4.633,4.633,0,0,1,1.159.674,2.747,2.747,0,0,1,.768,1.011,2.2,2.2,0,0,1,.054,1.428,2.7,2.7,0,0,1-.317.674,2.427,2.427,0,0,1-.627.674,3.638,3.638,0,0,1-.97.492,3.974,3.974,0,0,1-1.348.2h-.243a4.34,4.34,0,0,1-1.765-.472,4.238,4.238,0,0,1-1.449-1.138l-.054-.054.054-.074a1.083,1.083,0,0,1,.209-.242l.2-.169a1.047,1.047,0,0,1,.451-.115,1.2,1.2,0,0,1,.505.108l.519.209a3.923,3.923,0,0,0,.586.229,4.461,4.461,0,0,0,.721.128,1.422,1.422,0,0,0,.964-.263.889.889,0,0,0,.323-.519" transform="translate(-183.176 -446.471)" fill="#fff"/>
        <path id="Path_128" data-name="Path 128" d="M222.8,452.207a4.309,4.309,0,0,1,.9,1.408,4.717,4.717,0,0,1,.33,1.745,4.919,4.919,0,0,1-.3,1.745,4.232,4.232,0,0,1-.835,1.415,3.887,3.887,0,0,1-1.348.97,4.109,4.109,0,0,1-1.725.35,3.773,3.773,0,0,1-1.617-.35,4.3,4.3,0,0,1-1.348-.97,4.589,4.589,0,0,1-.889-1.415,4.651,4.651,0,0,1-.324-1.745,5.128,5.128,0,0,1,.29-1.745,4.249,4.249,0,0,1,.829-1.408,3.884,3.884,0,0,1,1.348-.97,4.089,4.089,0,0,1,1.725-.357,3.773,3.773,0,0,1,1.631.357,4.163,4.163,0,0,1,1.348.97m-2.951,6.031a1.8,1.8,0,0,0,.566-.115,1.53,1.53,0,0,0,.627-.424,2.519,2.519,0,0,0,.505-.876,5.389,5.389,0,0,0,0-2.924,2.344,2.344,0,0,0-.505-.876,1.53,1.53,0,0,0-.627-.424,1.767,1.767,0,0,0-.566-.108,1.829,1.829,0,0,0-.573.108,1.55,1.55,0,0,0-.62.424,2.343,2.343,0,0,0-.505.876,5.22,5.22,0,0,0,0,2.924,2.518,2.518,0,0,0,.505.876,1.55,1.55,0,0,0,.62.424,1.875,1.875,0,0,0,.573.115" transform="translate(-187.074 -446.465)" fill="#fff"/>
        <path id="Path_129" data-name="Path 129" d="M238.315,455.89a4.758,4.758,0,0,1-.371,2.021,3.276,3.276,0,0,1-.964,1.233,3.37,3.37,0,0,1-1.314.613,6.232,6.232,0,0,1-2.877,0,3.371,3.371,0,0,1-1.314-.613,3.135,3.135,0,0,1-.957-1.233,4.864,4.864,0,0,1-.364-2.021v-2.635a1.907,1.907,0,0,1,.606-1.59,2.781,2.781,0,0,1,1.765-.478,2.639,2.639,0,0,0-.034.337v4.366a4.262,4.262,0,0,0,.148,1.26,1.878,1.878,0,0,0,.4.741,1.351,1.351,0,0,0,.566.35,2.111,2.111,0,0,0,1.247,0,1.314,1.314,0,0,0,.559-.35,1.889,1.889,0,0,0,.4-.741,4.266,4.266,0,0,0,.148-1.26v-2.635a1.886,1.886,0,0,1,.613-1.59,2.816,2.816,0,0,1,1.772-.478c0,.074,0,.189,0,.337V453Z" transform="translate(-191.806 -446.563)" fill="#fff"/>
        <path id="Path_130" data-name="Path 130" d="M244.562,455.249a4.9,4.9,0,0,1,.364-2.021,3.112,3.112,0,0,1,2.244-1.853,6.891,6.891,0,0,1,1.422-.155h.916a1.807,1.807,0,0,1,.04.728,1.054,1.054,0,0,1-.256.539.984.984,0,0,1-.674.316,3.31,3.31,0,0,0-.62.142,1.347,1.347,0,0,0-.552.357,1.93,1.93,0,0,0-.4.714,4.211,4.211,0,0,0-.155,1.253v4.151a.808.808,0,0,0,.04.337,2.83,2.83,0,0,1-1.759-.478,1.914,1.914,0,0,1-.613-1.6Z" transform="translate(-196.503 -446.576)" fill="#fff"/>
        <path id="Path_131" data-name="Path 131" d="M256.648,452.47a1.759,1.759,0,0,0-.566.108,1.7,1.7,0,0,0-.627.424,2.438,2.438,0,0,0-.505.876,5.387,5.387,0,0,0,0,2.931,2.438,2.438,0,0,0,.505.876,1.622,1.622,0,0,0,.627.425,1.756,1.756,0,0,0,.566.107,3.352,3.352,0,0,0,.748-.074,4.337,4.337,0,0,0,.633-.168c.189-.074.364-.142.532-.2a1.636,1.636,0,0,1,.5-.081,1,1,0,0,1,.485.128,1.841,1.841,0,0,1,.431.431l.034.074-.054.054a4.439,4.439,0,0,1-1.469,1.058,4.358,4.358,0,0,1-1.819.384,3.794,3.794,0,0,1-1.631-.357,4.456,4.456,0,0,1-1.348-.95,4.35,4.35,0,0,1-.889-1.415,4.654,4.654,0,0,1-.33-1.745,4.977,4.977,0,0,1,.3-1.745,4.4,4.4,0,0,1,.842-1.428,3.979,3.979,0,0,1,3.019-1.307,4.44,4.44,0,0,1,3.308,1.442l.054.054-.054.074a1.044,1.044,0,0,1-.431.431.739.739,0,0,1-.465.128,1.635,1.635,0,0,1-.5-.081l-.532-.182a5.129,5.129,0,0,0-.633-.2,3.379,3.379,0,0,0-.748-.081" transform="translate(-199.088 -446.465)" fill="#fff"/>
        <path id="Path_132" data-name="Path 132" d="M272.495,457.827a1.349,1.349,0,0,1,.424.452l.061.054-.061.054a4.342,4.342,0,0,1-1.462,1.058,4.415,4.415,0,0,1-1.839.384,3.87,3.87,0,0,1-1.617-.35,4.227,4.227,0,0,1-1.348-.957,4.458,4.458,0,0,1-.883-1.415,4.516,4.516,0,0,1-.33-1.745,5.129,5.129,0,0,1,.29-1.745,4.49,4.49,0,0,1,.829-1.428,4.038,4.038,0,0,1,1.347-.95,4.09,4.09,0,0,1,1.725-.357,4.56,4.56,0,0,1,1.146.161,4.12,4.12,0,0,1,1.172.506,2.941,2.941,0,0,1,.9.9,2.465,2.465,0,0,1,.35,1.348,1.888,1.888,0,0,1-.391,1.24,2.926,2.926,0,0,1-.93.748,4.264,4.264,0,0,1-1.152.371,6.561,6.561,0,0,1-1.051.1,7.867,7.867,0,0,1-1.206-.081l-.674-.121a3.048,3.048,0,0,0,.3,1.092,2.394,2.394,0,0,0,.505.674,1.687,1.687,0,0,0,.559.33,1.864,1.864,0,0,0,.505.081,3.368,3.368,0,0,0,.748-.074,4.511,4.511,0,0,0,.633-.169c.189-.061.364-.121.532-.189a1.432,1.432,0,0,1,.492-.087.871.871,0,0,1,.472.128m-2.877-5.357a2.852,2.852,0,0,0-.485.1,1.575,1.575,0,0,0-.552.31,2.022,2.022,0,0,0-.492.633,3.128,3.128,0,0,0-.317,1.044,5.783,5.783,0,0,0,.849.175,4.273,4.273,0,0,0,1.1,0,2.323,2.323,0,0,0,.97-.317,1.024,1.024,0,0,0,.458-.883.9.9,0,0,0-.364-.8,1.638,1.638,0,0,0-1.166-.3" transform="translate(-203.318 -446.465)" fill="#fff"/>
        <path id="Path_133" data-name="Path 133" d="M282.858,457.46a.606.606,0,0,0-.182-.532,2.192,2.192,0,0,0-.613-.411c-.27-.135-.579-.27-.943-.425a7.7,7.7,0,0,1-1.139-.593,2.579,2.579,0,0,1-.734-.626,2.4,2.4,0,0,1-.424-.782,2.481,2.481,0,0,1-.108-.863,2.544,2.544,0,0,1,.2-.869,2.251,2.251,0,0,1,.485-.674,2.61,2.61,0,0,1,.674-.458,3.068,3.068,0,0,1,.707-.263,3.758,3.758,0,0,1,.674-.074h.222a4.381,4.381,0,0,1,3.207,1.624l.061.061-.061.074a1.252,1.252,0,0,1-.411.391.826.826,0,0,1-.465.128,1.3,1.3,0,0,1-.505-.1l-.519-.216c-.236-.095-.458-.182-.674-.25a1.969,1.969,0,0,0-.62-.1.91.91,0,0,0-.62.175.653.653,0,0,0-.02,1.011,2.831,2.831,0,0,0,.768.438l1.233.532a4.769,4.769,0,0,1,1.159.674,2.805,2.805,0,0,1,.761,1.011,2.2,2.2,0,0,1,.061,1.429,2.767,2.767,0,0,1-.323.674,2.5,2.5,0,0,1-.62.673,3.628,3.628,0,0,1-.97.492,4.042,4.042,0,0,1-1.347.2h-.243a4.315,4.315,0,0,1-1.759-.471,4.183,4.183,0,0,1-1.449-1.139l-.054-.054.054-.074a.924.924,0,0,1,.2-.243l.236-.121a.993.993,0,0,1,.445-.115,1.2,1.2,0,0,1,.506.108l.525.209a3.939,3.939,0,0,0,.586.229,4.319,4.319,0,0,0,.721.128A1.4,1.4,0,0,0,282.5,458a.9.9,0,0,0,.33-.519" transform="translate(-207.504 -446.468)" fill="#fff"/>
        <path id="Path_134" data-name="Path 134" d="M302.964,457.694a6.854,6.854,0,0,1-2.385-.431,5.926,5.926,0,0,1-2.021-1.274,6.246,6.246,0,0,1-1.429-2.089,8.041,8.041,0,0,1,0-5.788,6.247,6.247,0,0,1,1.429-2.089,5.792,5.792,0,0,1,2.021-1.26,6.842,6.842,0,0,1,2.385-.425,4.715,4.715,0,0,1,1.381.182,4.96,4.96,0,0,1,1.038.418,3.43,3.43,0,0,1,.674.5,2.659,2.659,0,0,1,.357.4,1.365,1.365,0,0,1-.135.209.673.673,0,0,1-.142.175.58.58,0,0,1-.175.121.827.827,0,0,1-.465.128,1.4,1.4,0,0,1-.485-.081l-.5-.175a4.4,4.4,0,0,0-.64-.182,4.523,4.523,0,0,0-.937-.081,3.585,3.585,0,0,0-2.7,1.213,4.669,4.669,0,0,0-.9,1.577,7.843,7.843,0,0,0,0,4.548,4.806,4.806,0,0,0,.9,1.577,3.647,3.647,0,0,0,1.26.923,3.573,3.573,0,0,0,1.429.3,4.525,4.525,0,0,0,.936-.081,5.518,5.518,0,0,0,.64-.182l.5-.175a1.42,1.42,0,0,1,.485-.081.831.831,0,0,1,.465.128,1.716,1.716,0,0,1,.317.3,1.369,1.369,0,0,1,.135.209,2.308,2.308,0,0,1-.357.418,3.186,3.186,0,0,1-.674.485,5.393,5.393,0,0,1-1.038.411,4.711,4.711,0,0,1-1.381.182" transform="translate(-213.48 -444.331)" fill="#fff"/>
        <path id="Path_135" data-name="Path 135" d="M319.422,452.207a4.312,4.312,0,0,1,.9,1.408,4.565,4.565,0,0,1,.33,1.745,5.071,5.071,0,0,1-.3,1.745,4.361,4.361,0,0,1-.842,1.415,3.926,3.926,0,0,1-1.314.97,4.143,4.143,0,0,1-1.732.351,3.722,3.722,0,0,1-1.61-.351,4.4,4.4,0,0,1-1.348-.97,4.453,4.453,0,0,1-.883-1.415,4.521,4.521,0,0,1-.33-1.745,5.292,5.292,0,0,1,.29-1.745,4.158,4.158,0,0,1,.836-1.408,3.8,3.8,0,0,1,1.314-.97,4.114,4.114,0,0,1,1.725-.357,3.827,3.827,0,0,1,1.637.357,4.04,4.04,0,0,1,1.314.97m-2.951,6.03a1.868,1.868,0,0,0,.573-.115,1.614,1.614,0,0,0,.627-.425,2.63,2.63,0,0,0,.5-.876,5.224,5.224,0,0,0,0-2.924,2.442,2.442,0,0,0-.5-.876,1.616,1.616,0,0,0-.627-.424,1.829,1.829,0,0,0-.573-.108,1.765,1.765,0,0,0-.566.108,1.529,1.529,0,0,0-.627.425,2.344,2.344,0,0,0-.505.876,5.387,5.387,0,0,0,0,2.924,2.517,2.517,0,0,0,.505.876,1.527,1.527,0,0,0,.627.425,1.783,1.783,0,0,0,.566.115" transform="translate(-218.604 -446.465)" fill="#fff"/>
        <path id="Path_136" data-name="Path 136" d="M338.4,454.949a4.045,4.045,0,0,0-.155-1.26,2.021,2.021,0,0,0-.418-.748,1.347,1.347,0,0,0-.579-.364,2.1,2.1,0,0,0-.64-.095,1.941,1.941,0,0,0-.62.095,1.238,1.238,0,0,0-.566.364,2.025,2.025,0,0,0-.4.748,4,4,0,0,0-.162,1.26v3.807a2.563,2.563,0,0,0,.034.559c.034.135,0,.263.04.337a2.8,2.8,0,0,1-1.772-.485,1.908,1.908,0,0,1-.62-1.59v-2.628a4,4,0,0,0-.162-1.26,1.848,1.848,0,0,0-.418-.748,1.278,1.278,0,0,0-.579-.364,2.056,2.056,0,0,0-.634-.095,2.012,2.012,0,0,0-.626.095,1.255,1.255,0,0,0-.559.364,1.913,1.913,0,0,0-.4.748,4.51,4.51,0,0,0-.148,1.26v4.366a.956.956,0,0,0,.034.337,2.817,2.817,0,0,1-1.772-.485,1.906,1.906,0,0,1-.613-1.59v-2.628a4.952,4.952,0,0,1,.37-2.021,3.181,3.181,0,0,1,.937-1.24,3.368,3.368,0,0,1,1.3-.607,6.5,6.5,0,0,1,1.428-.162,6.7,6.7,0,0,1,1.55.189,3.178,3.178,0,0,1,1.347.674,3.218,3.218,0,0,1,1.348-.674,6.724,6.724,0,0,1,1.55-.189,6.606,6.606,0,0,1,1.442.161,3.373,3.373,0,0,1,1.314.607,3.208,3.208,0,0,1,.95,1.24,4.958,4.958,0,0,1,.364,2.021v4.366a.805.805,0,0,0,.04.337,2.77,2.77,0,0,1-1.765-.485,1.921,1.921,0,0,1-.606-1.59Z" transform="translate(-223.284 -446.478)" fill="#fff"/>
        <path id="Path_137" data-name="Path 137" d="M349.8,455.361a4.564,4.564,0,0,1,.33-1.745,4.487,4.487,0,0,1,.883-1.408,4.162,4.162,0,0,1,1.347-.97,3.774,3.774,0,0,1,1.631-.357,4.088,4.088,0,0,1,1.725.357,3.884,3.884,0,0,1,1.348.97,4.27,4.27,0,0,1,.835,1.408,4.963,4.963,0,0,1,.3,1.745,4.52,4.52,0,0,1-.33,1.745,4.273,4.273,0,0,1-.9,1.415,4.218,4.218,0,0,1-1.314.97,3.819,3.819,0,0,1-1.637.35,4.038,4.038,0,0,1-1.887-.425v4.313a.809.809,0,0,0,.04.337,2.809,2.809,0,0,1-1.765-.485,1.954,1.954,0,0,1-.607-1.61Zm4.178,2.877a1.875,1.875,0,0,0,.573-.115,1.531,1.531,0,0,0,.62-.418,2.347,2.347,0,0,0,.506-.876,4.263,4.263,0,0,0,.209-1.469,4.211,4.211,0,0,0-.209-1.455,2.427,2.427,0,0,0-.505-.869,1.6,1.6,0,0,0-.62-.418,1.87,1.87,0,0,0-.573-.115,1.782,1.782,0,0,0-.566.115,1.575,1.575,0,0,0-.627.418,2.424,2.424,0,0,0-.505.869,4.367,4.367,0,0,0-.209,1.455,4.444,4.444,0,0,0,.209,1.469,2.344,2.344,0,0,0,.505.876,1.512,1.512,0,0,0,.627.418,1.8,1.8,0,0,0,.566.115" transform="translate(-230.832 -446.465)" fill="#fff"/>
        <path id="Path_138" data-name="Path 138" d="M365.237,454.876a3.819,3.819,0,0,1,1.139-.471,5.331,5.331,0,0,1,1.348-.162,5.98,5.98,0,0,1,1.846.283,3.3,3.3,0,0,0-.242-1.031,1.6,1.6,0,0,0-.728-.836,1.35,1.35,0,0,0-.4-.142,2.231,2.231,0,0,0-.5-.047h-.2a3.544,3.544,0,0,0-.526.081l-.526.162a4.525,4.525,0,0,1-.519.155,1.928,1.928,0,0,1-.505.067,1.112,1.112,0,0,1-.505-.115,1.1,1.1,0,0,1-.391-.425l-.034-.074.034-.061a4.435,4.435,0,0,1,1.314-.957,4.5,4.5,0,0,1,1.658-.424h.317a3.919,3.919,0,0,1,1.563.3,3.8,3.8,0,0,1,1.233.849,4.454,4.454,0,0,1,1.105,3.045v.148a4.825,4.825,0,0,1-.99,3.154,3.856,3.856,0,0,1-1.166.97,4.2,4.2,0,0,1-1.523.472h-.465a5.919,5.919,0,0,1-.822-.068,3.194,3.194,0,0,1-.842-.256,3.067,3.067,0,0,1-.782-.438,2.187,2.187,0,0,1-.6-.674,2.421,2.421,0,0,1-.37-1.348v-.114a2.249,2.249,0,0,1,.3-1.213,2.38,2.38,0,0,1,.8-.842m3.868.9-.553-.074h-.627a4.059,4.059,0,0,0-.505,0,2.133,2.133,0,0,0-.444.1,1.388,1.388,0,0,0-.674.465.9.9,0,0,0-.155.256,1.359,1.359,0,0,0-.074.3.588.588,0,0,0,0,.168,1.465,1.465,0,0,0,.054.4.877.877,0,0,0,.222.4,1.177,1.177,0,0,0,.438.323,1.916,1.916,0,0,0,.775.128.908.908,0,0,0,.223,0,1.632,1.632,0,0,0,.916-.3,1.241,1.241,0,0,0,.317-.27,2.079,2.079,0,0,0,.229-.35,2.352,2.352,0,0,0,.276-.728,3.719,3.719,0,0,0,.074-.674h-.168l-.222-.061" transform="translate(-235.52 -446.465)" fill="#fff"/>
        <path id="Path_139" data-name="Path 139" d="M377.429,454.949a4.964,4.964,0,0,1,.364-2.022,3.32,3.32,0,0,1,.937-1.24,3.2,3.2,0,0,1,1.287-.606,6.511,6.511,0,0,1,2.884,0,3.423,3.423,0,0,1,1.348.606,3.208,3.208,0,0,1,.95,1.24,4.962,4.962,0,0,1,.364,2.022l.074,4.717a2.8,2.8,0,0,1-1.759-.485,1.926,1.926,0,0,1-.613-1.59v-2.628a4,4,0,0,0-.162-1.26,1.85,1.85,0,0,0-.418-.748,1.347,1.347,0,0,0-.58-.364,2.056,2.056,0,0,0-.633-.094,1.957,1.957,0,0,0-.627.094,1.255,1.255,0,0,0-.559.364,2.023,2.023,0,0,0-.411.748,4,4,0,0,0-.162,1.26v2.89a7.234,7.234,0,0,0,.034.917,3.053,3.053,0,0,1,0,.559,2.659,2.659,0,0,0,.034.337,2.816,2.816,0,0,1-1.772-.485,1.907,1.907,0,0,1-.613-1.59Z" transform="translate(-239.835 -446.478)" fill="#fff"/>
        <path id="Path_140" data-name="Path 140" d="M396.374,452.111a1.49,1.49,0,0,1,.674-.815,2.614,2.614,0,0,1,.876-.249,3.453,3.453,0,0,1,1.065.094q-1.193,2.871-2.15,5.155-.4.971-.809,1.92c-.27.633-.505,1.206-.721,1.718s-.384.93-.532,1.267-.222.532-.249.579a1.589,1.589,0,0,1-.674.822,2.329,2.329,0,0,1-.856.263,2.7,2.7,0,0,1-1.065-.115l.485-1.139c.148-.357.323-.775.512-1.24s.4-.963.627-1.482c-.034-.087-.114-.269-.236-.546l-.411-.99c-.155-.384-.33-.8-.519-1.26s-.384-.91-.573-1.348q-.674-1.631-1.509-3.585a3.447,3.447,0,0,1,1.064-.094,2.579,2.579,0,0,1,.869.249,1.583,1.583,0,0,1,.674.815,3.079,3.079,0,0,0,.2.478l.391.957c.155.391.33.815.532,1.28l.6,1.408.633-1.489c.2-.478.377-.9.532-1.273s.276-.674.371-.923l.175-.438" transform="translate(-244.051 -446.516)" fill="#fff"/>
      </g>
    </g>
  </g>
</svg>
