<svg xmlns="http://www.w3.org/2000/svg" width="47.802" height="36.754" viewBox="0 0 47.802 36.754">
  <g id="svgexport-6_6_" data-name="svgexport-6 (6)" transform="translate(0 -59.331)">
    <g id="Group_11434" data-name="Group 11434" transform="translate(0 59.331)">
      <path id="Path_11972" data-name="Path 11972" d="M31,249.925a8.455,8.455,0,1,0,8.456-8.455A8.465,8.465,0,0,0,31,249.925Zm15.514,0a7.059,7.059,0,1,1-7.059-7.059,7.067,7.067,0,0,1,7.059,7.059Z" transform="translate(-28.114 -224.512)" fill="#4a1714"/>
      <path id="Path_11973" data-name="Path 11973" d="M46.2,78.933l0-.011L40.528,67.18a8.127,8.127,0,0,0-3.642-3.7l-.535-1.108A5.372,5.372,0,0,0,26.14,64.7v2.063A8.046,8.046,0,0,0,25.2,69.54H22.6a8.046,8.046,0,0,0-.938-2.774V64.7A5.372,5.372,0,0,0,11.45,62.369l-.535,1.108a8.128,8.128,0,0,0-3.642,3.7l-.981,2.034a.7.7,0,1,0,1.258.607l.981-2.034A6.711,6.711,0,0,1,21.287,70.7v8.59a11.358,11.358,0,0,0-2.6-3.191.7.7,0,0,0-.9,1.064,9.9,9.9,0,1,1-2.349-1.489.7.7,0,0,0,.575-1.273A11.339,11.339,0,0,0,4.828,75.464l1.426-2.957A.7.7,0,1,0,5,71.9L1.61,78.922l0,.011A11.34,11.34,0,1,0,22.68,84.98h2.441A11.341,11.341,0,1,0,46.2,78.933ZM39.27,67.787l3.7,7.678A11.33,11.33,0,0,0,26.515,79.3V70.7A6.711,6.711,0,0,1,39.27,67.787Zm-14.152,15.8H22.683V70.937h2.435Zm6.394-22.855A4,4,0,0,1,35,62.795a8.064,8.064,0,0,0-7.461,2.137V64.7A3.98,3.98,0,0,1,31.513,60.728ZM14.576,62.595a8.007,8.007,0,0,0-1.772.2A3.974,3.974,0,0,1,20.265,64.7v.229A8.081,8.081,0,0,0,14.576,62.595ZM36.46,94.689a9.945,9.945,0,1,1,9.945-9.945A9.956,9.956,0,0,1,36.46,94.689Z" transform="translate(0 -59.331)" fill="#4a1714"/>
      <path id="Path_11974" data-name="Path 11974" d="M312.427,242.091a.7.7,0,0,0-.526,1.294,7.056,7.056,0,1,1-2.661-.517.7.7,0,0,0,0-1.4h0a8.46,8.46,0,1,0,3.189.619Z" transform="translate(-272.794 -224.515)" fill="#4a1714"/>
    </g>
  </g>
</svg>
