<svg xmlns="http://www.w3.org/2000/svg" width="36.564" height="50.12" viewBox="0 0 36.564 50.12">
  <g id="svgexport-6_7_" data-name="svgexport-6 (7)" transform="translate(0 0)">
    <path id="Path_11975" data-name="Path 11975" d="M35.647,15.722l-2.353-2.855a2.525,2.525,0,0,1-.568-1.371l-.355-3.683a4.032,4.032,0,0,0-3.62-3.62l-3.683-.354A2.531,2.531,0,0,1,23.7,3.271L20.842.917a4.032,4.032,0,0,0-5.12,0L12.867,3.271a2.529,2.529,0,0,1-1.371.568l-3.683.354a4.032,4.032,0,0,0-3.62,3.62L3.839,11.5a2.531,2.531,0,0,1-.568,1.371L.917,15.722a4.032,4.032,0,0,0,0,5.12L3.271,23.7a2.531,2.531,0,0,1,.568,1.371l.354,3.683a4.032,4.032,0,0,0,3.62,3.62l2.251.217L4.716,45.368A.974.974,0,0,0,5.88,46.681l4.64-1.31a.042.042,0,0,1,.049.02l2.324,4.225a.965.965,0,0,0,.852.5H13.8a.97.97,0,0,0,.85-.6l5.647-13.494a4.012,4.012,0,0,0,.551-.381L23.7,33.294a2.525,2.525,0,0,1,1.255-.553l5.114,12.22L26.448,43.94a1.523,1.523,0,0,0-1.754.734l-1.812,3.295-2.4-5.738a.743.743,0,1,0-1.371.574l2.812,6.721a.968.968,0,0,0,.848.593l.051,0a.966.966,0,0,0,.852-.5L26,45.391a.043.043,0,0,1,.049-.02l4.639,1.31a.974.974,0,0,0,1.164-1.313L26.5,32.588l2.251-.217a4.031,4.031,0,0,0,3.62-3.62l.355-3.683a2.524,2.524,0,0,1,.568-1.371l2.353-2.855a4.031,4.031,0,0,0,0-5.12ZM13.683,47.969l-1.812-3.3a1.523,1.523,0,0,0-1.754-.733L6.5,44.961l5.114-12.22a2.527,2.527,0,0,1,1.256.552l2.855,2.354a4.017,4.017,0,0,0,2.56.917c.059,0,.117,0,.175,0ZM34.5,19.9l-2.353,2.855a4.007,4.007,0,0,0-.9,2.174l-.354,3.683a2.543,2.543,0,0,1-2.283,2.283l-3.235.312-.038,0-.41.039a4.01,4.01,0,0,0-2.174.9L19.9,34.5a2.542,2.542,0,0,1-3.229,0l-2.855-2.353a4.007,4.007,0,0,0-2.174-.9l-.411-.04-.034,0-3.237-.312a2.543,2.543,0,0,1-2.283-2.283l-.354-3.682a4.007,4.007,0,0,0-.9-2.174L2.064,19.9a2.543,2.543,0,0,1,0-3.229l2.353-2.855a4.007,4.007,0,0,0,.9-2.174l.354-3.683A2.543,2.543,0,0,1,7.956,5.673l3.683-.354a4.01,4.01,0,0,0,2.174-.9l2.855-2.353a2.542,2.542,0,0,1,3.229,0l2.855,2.353a4.007,4.007,0,0,0,2.174.9l3.683.354a2.543,2.543,0,0,1,2.283,2.283l.354,3.683a4.007,4.007,0,0,0,.9,2.174L34.5,16.668a2.544,2.544,0,0,1,0,3.229Zm0,0" transform="translate(0 0)" fill="#4a1714"/>
    <path id="Path_11976" data-name="Path 11976" d="M79.767,68.156a11.726,11.726,0,0,0-1.485.094.743.743,0,0,0,.189,1.474,10.238,10.238,0,0,1,1.3-.082,10.115,10.115,0,1,1-4.143.883.743.743,0,0,0-.609-1.356,11.616,11.616,0,1,0,4.751-1.014Zm0,0" transform="translate(-61.484 -61.484)" fill="#4a1714"/>
    <path id="Path_11977" data-name="Path 11977" d="M105.235,136.451a2.275,2.275,0,0,0,0,3.214l3.246,3.246a2.274,2.274,0,0,0,3.214,0l7.086-7.086a2.273,2.273,0,0,0-3.214-3.214l-5.479,5.479-1.639-1.639a2.275,2.275,0,0,0-3.214,0Zm4.853,3.433a.743.743,0,0,0,.525-.218l6-6a.786.786,0,1,1,1.112,1.112l-7.086,7.086a.787.787,0,0,1-1.112,0l-3.246-3.246A.786.786,0,0,1,107.4,137.5l2.165,2.165A.743.743,0,0,0,110.089,139.885Zm0,0" transform="translate(-94.334 -119.03)" fill="#4a1714"/>
  </g>
</svg>
